G75*
%MOIN*%
%OFA0B0*%
%FSLAX25Y25*%
%IPPOS*%
%LPD*%
%AMOC8*
5,1,8,0,0,1.08239X$1,22.5*
%
%ADD10C,0.04343*%
%ADD11OC8,0.06400*%
%ADD12OC8,0.13200*%
%ADD13C,0.06000*%
%ADD14C,0.03346*%
%ADD15C,0.05556*%
%ADD16OC8,0.06000*%
%ADD17C,0.03778*%
%ADD18OC8,0.04762*%
D10*
X0011700Y0011900D03*
X0011700Y0160800D03*
X0253600Y0160300D03*
X0253100Y0012900D03*
D11*
X0148800Y0073800D03*
X0148800Y0083800D03*
X0118800Y0083800D03*
X0118800Y0073800D03*
D12*
X0118800Y0038800D03*
X0138800Y0038800D03*
D13*
X0088800Y0059800D02*
X0088800Y0065000D01*
X0078800Y0065000D02*
X0078800Y0059800D01*
X0068800Y0059800D02*
X0068800Y0065000D01*
X0058800Y0065000D02*
X0058800Y0059800D01*
X0058800Y0089800D02*
X0058800Y0095000D01*
X0068800Y0095000D02*
X0068800Y0089800D01*
X0078800Y0089800D02*
X0078800Y0095000D01*
X0088800Y0095000D02*
X0088800Y0089800D01*
D14*
X0185056Y0085871D02*
X0185058Y0085952D01*
X0185064Y0086034D01*
X0185074Y0086115D01*
X0185088Y0086195D01*
X0185105Y0086274D01*
X0185127Y0086353D01*
X0185152Y0086430D01*
X0185181Y0086507D01*
X0185214Y0086581D01*
X0185251Y0086654D01*
X0185290Y0086725D01*
X0185334Y0086794D01*
X0185380Y0086861D01*
X0185430Y0086925D01*
X0185483Y0086987D01*
X0185539Y0087047D01*
X0185597Y0087103D01*
X0185659Y0087157D01*
X0185723Y0087208D01*
X0185789Y0087255D01*
X0185857Y0087299D01*
X0185928Y0087340D01*
X0186000Y0087377D01*
X0186075Y0087411D01*
X0186150Y0087441D01*
X0186228Y0087467D01*
X0186306Y0087490D01*
X0186385Y0087508D01*
X0186465Y0087523D01*
X0186546Y0087534D01*
X0186627Y0087541D01*
X0186709Y0087544D01*
X0186790Y0087543D01*
X0186871Y0087538D01*
X0186952Y0087529D01*
X0187033Y0087516D01*
X0187113Y0087499D01*
X0187191Y0087479D01*
X0187269Y0087454D01*
X0187346Y0087426D01*
X0187421Y0087394D01*
X0187494Y0087359D01*
X0187565Y0087320D01*
X0187635Y0087277D01*
X0187702Y0087232D01*
X0187768Y0087183D01*
X0187830Y0087131D01*
X0187890Y0087075D01*
X0187947Y0087017D01*
X0188002Y0086957D01*
X0188053Y0086893D01*
X0188101Y0086828D01*
X0188146Y0086760D01*
X0188188Y0086690D01*
X0188226Y0086618D01*
X0188261Y0086544D01*
X0188292Y0086469D01*
X0188319Y0086392D01*
X0188342Y0086314D01*
X0188362Y0086235D01*
X0188378Y0086155D01*
X0188390Y0086074D01*
X0188398Y0085993D01*
X0188402Y0085912D01*
X0188402Y0085830D01*
X0188398Y0085749D01*
X0188390Y0085668D01*
X0188378Y0085587D01*
X0188362Y0085507D01*
X0188342Y0085428D01*
X0188319Y0085350D01*
X0188292Y0085273D01*
X0188261Y0085198D01*
X0188226Y0085124D01*
X0188188Y0085052D01*
X0188146Y0084982D01*
X0188101Y0084914D01*
X0188053Y0084849D01*
X0188002Y0084785D01*
X0187947Y0084725D01*
X0187890Y0084667D01*
X0187830Y0084611D01*
X0187768Y0084559D01*
X0187702Y0084510D01*
X0187635Y0084465D01*
X0187566Y0084422D01*
X0187494Y0084383D01*
X0187421Y0084348D01*
X0187346Y0084316D01*
X0187269Y0084288D01*
X0187191Y0084263D01*
X0187113Y0084243D01*
X0187033Y0084226D01*
X0186952Y0084213D01*
X0186871Y0084204D01*
X0186790Y0084199D01*
X0186709Y0084198D01*
X0186627Y0084201D01*
X0186546Y0084208D01*
X0186465Y0084219D01*
X0186385Y0084234D01*
X0186306Y0084252D01*
X0186228Y0084275D01*
X0186150Y0084301D01*
X0186075Y0084331D01*
X0186000Y0084365D01*
X0185928Y0084402D01*
X0185857Y0084443D01*
X0185789Y0084487D01*
X0185723Y0084534D01*
X0185659Y0084585D01*
X0185597Y0084639D01*
X0185539Y0084695D01*
X0185483Y0084755D01*
X0185430Y0084817D01*
X0185380Y0084881D01*
X0185334Y0084948D01*
X0185290Y0085017D01*
X0185251Y0085088D01*
X0185214Y0085161D01*
X0185181Y0085235D01*
X0185152Y0085312D01*
X0185127Y0085389D01*
X0185105Y0085468D01*
X0185088Y0085547D01*
X0185074Y0085627D01*
X0185064Y0085708D01*
X0185058Y0085790D01*
X0185056Y0085871D01*
X0199198Y0085871D02*
X0199200Y0085952D01*
X0199206Y0086034D01*
X0199216Y0086115D01*
X0199230Y0086195D01*
X0199247Y0086274D01*
X0199269Y0086353D01*
X0199294Y0086430D01*
X0199323Y0086507D01*
X0199356Y0086581D01*
X0199393Y0086654D01*
X0199432Y0086725D01*
X0199476Y0086794D01*
X0199522Y0086861D01*
X0199572Y0086925D01*
X0199625Y0086987D01*
X0199681Y0087047D01*
X0199739Y0087103D01*
X0199801Y0087157D01*
X0199865Y0087208D01*
X0199931Y0087255D01*
X0199999Y0087299D01*
X0200070Y0087340D01*
X0200142Y0087377D01*
X0200217Y0087411D01*
X0200292Y0087441D01*
X0200370Y0087467D01*
X0200448Y0087490D01*
X0200527Y0087508D01*
X0200607Y0087523D01*
X0200688Y0087534D01*
X0200769Y0087541D01*
X0200851Y0087544D01*
X0200932Y0087543D01*
X0201013Y0087538D01*
X0201094Y0087529D01*
X0201175Y0087516D01*
X0201255Y0087499D01*
X0201333Y0087479D01*
X0201411Y0087454D01*
X0201488Y0087426D01*
X0201563Y0087394D01*
X0201636Y0087359D01*
X0201707Y0087320D01*
X0201777Y0087277D01*
X0201844Y0087232D01*
X0201910Y0087183D01*
X0201972Y0087131D01*
X0202032Y0087075D01*
X0202089Y0087017D01*
X0202144Y0086957D01*
X0202195Y0086893D01*
X0202243Y0086828D01*
X0202288Y0086760D01*
X0202330Y0086690D01*
X0202368Y0086618D01*
X0202403Y0086544D01*
X0202434Y0086469D01*
X0202461Y0086392D01*
X0202484Y0086314D01*
X0202504Y0086235D01*
X0202520Y0086155D01*
X0202532Y0086074D01*
X0202540Y0085993D01*
X0202544Y0085912D01*
X0202544Y0085830D01*
X0202540Y0085749D01*
X0202532Y0085668D01*
X0202520Y0085587D01*
X0202504Y0085507D01*
X0202484Y0085428D01*
X0202461Y0085350D01*
X0202434Y0085273D01*
X0202403Y0085198D01*
X0202368Y0085124D01*
X0202330Y0085052D01*
X0202288Y0084982D01*
X0202243Y0084914D01*
X0202195Y0084849D01*
X0202144Y0084785D01*
X0202089Y0084725D01*
X0202032Y0084667D01*
X0201972Y0084611D01*
X0201910Y0084559D01*
X0201844Y0084510D01*
X0201777Y0084465D01*
X0201708Y0084422D01*
X0201636Y0084383D01*
X0201563Y0084348D01*
X0201488Y0084316D01*
X0201411Y0084288D01*
X0201333Y0084263D01*
X0201255Y0084243D01*
X0201175Y0084226D01*
X0201094Y0084213D01*
X0201013Y0084204D01*
X0200932Y0084199D01*
X0200851Y0084198D01*
X0200769Y0084201D01*
X0200688Y0084208D01*
X0200607Y0084219D01*
X0200527Y0084234D01*
X0200448Y0084252D01*
X0200370Y0084275D01*
X0200292Y0084301D01*
X0200217Y0084331D01*
X0200142Y0084365D01*
X0200070Y0084402D01*
X0199999Y0084443D01*
X0199931Y0084487D01*
X0199865Y0084534D01*
X0199801Y0084585D01*
X0199739Y0084639D01*
X0199681Y0084695D01*
X0199625Y0084755D01*
X0199572Y0084817D01*
X0199522Y0084881D01*
X0199476Y0084948D01*
X0199432Y0085017D01*
X0199393Y0085088D01*
X0199356Y0085161D01*
X0199323Y0085235D01*
X0199294Y0085312D01*
X0199269Y0085389D01*
X0199247Y0085468D01*
X0199230Y0085547D01*
X0199216Y0085627D01*
X0199206Y0085708D01*
X0199200Y0085790D01*
X0199198Y0085871D01*
X0199198Y0071729D02*
X0199200Y0071810D01*
X0199206Y0071892D01*
X0199216Y0071973D01*
X0199230Y0072053D01*
X0199247Y0072132D01*
X0199269Y0072211D01*
X0199294Y0072288D01*
X0199323Y0072365D01*
X0199356Y0072439D01*
X0199393Y0072512D01*
X0199432Y0072583D01*
X0199476Y0072652D01*
X0199522Y0072719D01*
X0199572Y0072783D01*
X0199625Y0072845D01*
X0199681Y0072905D01*
X0199739Y0072961D01*
X0199801Y0073015D01*
X0199865Y0073066D01*
X0199931Y0073113D01*
X0199999Y0073157D01*
X0200070Y0073198D01*
X0200142Y0073235D01*
X0200217Y0073269D01*
X0200292Y0073299D01*
X0200370Y0073325D01*
X0200448Y0073348D01*
X0200527Y0073366D01*
X0200607Y0073381D01*
X0200688Y0073392D01*
X0200769Y0073399D01*
X0200851Y0073402D01*
X0200932Y0073401D01*
X0201013Y0073396D01*
X0201094Y0073387D01*
X0201175Y0073374D01*
X0201255Y0073357D01*
X0201333Y0073337D01*
X0201411Y0073312D01*
X0201488Y0073284D01*
X0201563Y0073252D01*
X0201636Y0073217D01*
X0201707Y0073178D01*
X0201777Y0073135D01*
X0201844Y0073090D01*
X0201910Y0073041D01*
X0201972Y0072989D01*
X0202032Y0072933D01*
X0202089Y0072875D01*
X0202144Y0072815D01*
X0202195Y0072751D01*
X0202243Y0072686D01*
X0202288Y0072618D01*
X0202330Y0072548D01*
X0202368Y0072476D01*
X0202403Y0072402D01*
X0202434Y0072327D01*
X0202461Y0072250D01*
X0202484Y0072172D01*
X0202504Y0072093D01*
X0202520Y0072013D01*
X0202532Y0071932D01*
X0202540Y0071851D01*
X0202544Y0071770D01*
X0202544Y0071688D01*
X0202540Y0071607D01*
X0202532Y0071526D01*
X0202520Y0071445D01*
X0202504Y0071365D01*
X0202484Y0071286D01*
X0202461Y0071208D01*
X0202434Y0071131D01*
X0202403Y0071056D01*
X0202368Y0070982D01*
X0202330Y0070910D01*
X0202288Y0070840D01*
X0202243Y0070772D01*
X0202195Y0070707D01*
X0202144Y0070643D01*
X0202089Y0070583D01*
X0202032Y0070525D01*
X0201972Y0070469D01*
X0201910Y0070417D01*
X0201844Y0070368D01*
X0201777Y0070323D01*
X0201708Y0070280D01*
X0201636Y0070241D01*
X0201563Y0070206D01*
X0201488Y0070174D01*
X0201411Y0070146D01*
X0201333Y0070121D01*
X0201255Y0070101D01*
X0201175Y0070084D01*
X0201094Y0070071D01*
X0201013Y0070062D01*
X0200932Y0070057D01*
X0200851Y0070056D01*
X0200769Y0070059D01*
X0200688Y0070066D01*
X0200607Y0070077D01*
X0200527Y0070092D01*
X0200448Y0070110D01*
X0200370Y0070133D01*
X0200292Y0070159D01*
X0200217Y0070189D01*
X0200142Y0070223D01*
X0200070Y0070260D01*
X0199999Y0070301D01*
X0199931Y0070345D01*
X0199865Y0070392D01*
X0199801Y0070443D01*
X0199739Y0070497D01*
X0199681Y0070553D01*
X0199625Y0070613D01*
X0199572Y0070675D01*
X0199522Y0070739D01*
X0199476Y0070806D01*
X0199432Y0070875D01*
X0199393Y0070946D01*
X0199356Y0071019D01*
X0199323Y0071093D01*
X0199294Y0071170D01*
X0199269Y0071247D01*
X0199247Y0071326D01*
X0199230Y0071405D01*
X0199216Y0071485D01*
X0199206Y0071566D01*
X0199200Y0071648D01*
X0199198Y0071729D01*
D15*
X0048800Y0113800D03*
X0048800Y0127186D03*
D16*
X0083800Y0118800D03*
X0093800Y0118800D03*
X0088800Y0126300D03*
X0133800Y0118800D03*
X0143800Y0118800D03*
X0138800Y0126300D03*
X0188800Y0118800D03*
X0198800Y0118800D03*
X0193800Y0126300D03*
D17*
X0205675Y0133175D03*
X0181925Y0116300D03*
X0138800Y0103800D03*
X0190675Y0160050D03*
X0076300Y0160050D03*
X0040675Y0147550D03*
X0048800Y0133175D03*
D18*
X0066300Y0118800D03*
X0166300Y0061300D03*
X0215600Y0109200D03*
X0168800Y0118800D03*
X0058800Y0046300D03*
M02*
