G75*
%MOIN*%
%OFA0B0*%
%FSLAX25Y25*%
%IPPOS*%
%LPD*%
%AMOC8*
5,1,8,0,0,1.08239X$1,22.5*
%
%ADD10C,0.00600*%
%ADD11C,0.01200*%
%ADD12C,0.00500*%
%ADD13C,0.01000*%
%ADD14C,0.00800*%
%ADD15C,0.00400*%
%ADD16C,0.00787*%
D10*
X0044700Y0021800D02*
X0044700Y0028200D01*
X0047544Y0028200D01*
X0050105Y0028200D02*
X0051883Y0028200D01*
X0051966Y0028198D01*
X0052049Y0028192D01*
X0052132Y0028182D01*
X0052215Y0028169D01*
X0052296Y0028151D01*
X0052377Y0028130D01*
X0052456Y0028105D01*
X0052534Y0028076D01*
X0052611Y0028044D01*
X0052686Y0028008D01*
X0052760Y0027969D01*
X0052831Y0027926D01*
X0052901Y0027880D01*
X0052968Y0027830D01*
X0053033Y0027778D01*
X0053095Y0027723D01*
X0053155Y0027664D01*
X0053212Y0027603D01*
X0053266Y0027540D01*
X0053317Y0027474D01*
X0053364Y0027405D01*
X0053409Y0027335D01*
X0053450Y0027262D01*
X0053487Y0027188D01*
X0053522Y0027112D01*
X0053552Y0027034D01*
X0053579Y0026956D01*
X0053602Y0026875D01*
X0053622Y0026794D01*
X0053637Y0026712D01*
X0053649Y0026630D01*
X0053657Y0026547D01*
X0053661Y0026464D01*
X0053661Y0026380D01*
X0053657Y0026297D01*
X0053649Y0026214D01*
X0053637Y0026132D01*
X0053622Y0026050D01*
X0053602Y0025969D01*
X0053579Y0025888D01*
X0053552Y0025810D01*
X0053522Y0025732D01*
X0053487Y0025656D01*
X0053450Y0025582D01*
X0053409Y0025509D01*
X0053364Y0025439D01*
X0053317Y0025370D01*
X0053266Y0025304D01*
X0053212Y0025241D01*
X0053155Y0025180D01*
X0053095Y0025121D01*
X0053033Y0025066D01*
X0052968Y0025014D01*
X0052901Y0024964D01*
X0052831Y0024918D01*
X0052760Y0024875D01*
X0052686Y0024836D01*
X0052611Y0024800D01*
X0052534Y0024768D01*
X0052456Y0024739D01*
X0052377Y0024714D01*
X0052296Y0024693D01*
X0052215Y0024675D01*
X0052132Y0024662D01*
X0052049Y0024652D01*
X0051966Y0024646D01*
X0051883Y0024644D01*
X0050105Y0024644D01*
X0046833Y0025356D02*
X0044700Y0025356D01*
X0044700Y0021800D02*
X0047544Y0021800D01*
X0050105Y0021800D02*
X0050105Y0028200D01*
X0059541Y0028200D02*
X0059541Y0021800D01*
X0059541Y0024644D02*
X0061319Y0024644D01*
X0061402Y0024646D01*
X0061485Y0024652D01*
X0061568Y0024662D01*
X0061651Y0024675D01*
X0061732Y0024693D01*
X0061813Y0024714D01*
X0061892Y0024739D01*
X0061970Y0024768D01*
X0062047Y0024800D01*
X0062122Y0024836D01*
X0062196Y0024875D01*
X0062267Y0024918D01*
X0062337Y0024964D01*
X0062404Y0025014D01*
X0062469Y0025066D01*
X0062531Y0025121D01*
X0062591Y0025180D01*
X0062648Y0025241D01*
X0062702Y0025304D01*
X0062753Y0025370D01*
X0062800Y0025439D01*
X0062845Y0025509D01*
X0062886Y0025582D01*
X0062923Y0025656D01*
X0062958Y0025732D01*
X0062988Y0025810D01*
X0063015Y0025888D01*
X0063038Y0025969D01*
X0063058Y0026050D01*
X0063073Y0026132D01*
X0063085Y0026214D01*
X0063093Y0026297D01*
X0063097Y0026380D01*
X0063097Y0026464D01*
X0063093Y0026547D01*
X0063085Y0026630D01*
X0063073Y0026712D01*
X0063058Y0026794D01*
X0063038Y0026875D01*
X0063015Y0026956D01*
X0062988Y0027034D01*
X0062958Y0027112D01*
X0062923Y0027188D01*
X0062886Y0027262D01*
X0062845Y0027335D01*
X0062800Y0027405D01*
X0062753Y0027474D01*
X0062702Y0027540D01*
X0062648Y0027603D01*
X0062591Y0027664D01*
X0062531Y0027723D01*
X0062469Y0027778D01*
X0062404Y0027830D01*
X0062337Y0027880D01*
X0062267Y0027926D01*
X0062196Y0027969D01*
X0062122Y0028008D01*
X0062047Y0028044D01*
X0061970Y0028076D01*
X0061892Y0028105D01*
X0061813Y0028130D01*
X0061732Y0028151D01*
X0061651Y0028169D01*
X0061568Y0028182D01*
X0061485Y0028192D01*
X0061402Y0028198D01*
X0061319Y0028200D01*
X0059541Y0028200D01*
X0065591Y0026067D02*
X0067724Y0026067D01*
X0067724Y0025356D01*
X0069660Y0024644D02*
X0069660Y0023222D01*
X0069662Y0023148D01*
X0069668Y0023073D01*
X0069678Y0023000D01*
X0069691Y0022926D01*
X0069708Y0022854D01*
X0069730Y0022783D01*
X0069754Y0022712D01*
X0069783Y0022644D01*
X0069815Y0022576D01*
X0069851Y0022511D01*
X0069889Y0022448D01*
X0069932Y0022386D01*
X0069977Y0022327D01*
X0070025Y0022270D01*
X0070076Y0022216D01*
X0070130Y0022165D01*
X0070187Y0022117D01*
X0070246Y0022072D01*
X0070308Y0022029D01*
X0070371Y0021991D01*
X0070436Y0021955D01*
X0070504Y0021923D01*
X0070572Y0021894D01*
X0070643Y0021870D01*
X0070714Y0021848D01*
X0070786Y0021831D01*
X0070860Y0021818D01*
X0070933Y0021808D01*
X0071008Y0021802D01*
X0071082Y0021800D01*
X0071156Y0021802D01*
X0071231Y0021808D01*
X0071304Y0021818D01*
X0071378Y0021831D01*
X0071450Y0021848D01*
X0071521Y0021870D01*
X0071592Y0021894D01*
X0071660Y0021923D01*
X0071728Y0021955D01*
X0071793Y0021991D01*
X0071856Y0022029D01*
X0071918Y0022072D01*
X0071977Y0022117D01*
X0072034Y0022165D01*
X0072088Y0022216D01*
X0072139Y0022270D01*
X0072187Y0022327D01*
X0072232Y0022386D01*
X0072275Y0022448D01*
X0072313Y0022511D01*
X0072349Y0022576D01*
X0072381Y0022644D01*
X0072410Y0022712D01*
X0072434Y0022783D01*
X0072456Y0022854D01*
X0072473Y0022926D01*
X0072486Y0023000D01*
X0072496Y0023073D01*
X0072502Y0023148D01*
X0072504Y0023222D01*
X0072504Y0024644D01*
X0072502Y0024718D01*
X0072496Y0024793D01*
X0072486Y0024866D01*
X0072473Y0024940D01*
X0072456Y0025012D01*
X0072434Y0025083D01*
X0072410Y0025154D01*
X0072381Y0025222D01*
X0072349Y0025290D01*
X0072313Y0025355D01*
X0072275Y0025418D01*
X0072232Y0025480D01*
X0072187Y0025539D01*
X0072139Y0025596D01*
X0072088Y0025650D01*
X0072034Y0025701D01*
X0071977Y0025749D01*
X0071918Y0025794D01*
X0071856Y0025837D01*
X0071793Y0025875D01*
X0071728Y0025911D01*
X0071660Y0025943D01*
X0071592Y0025972D01*
X0071521Y0025996D01*
X0071450Y0026018D01*
X0071378Y0026035D01*
X0071304Y0026048D01*
X0071231Y0026058D01*
X0071156Y0026064D01*
X0071082Y0026066D01*
X0071008Y0026064D01*
X0070933Y0026058D01*
X0070860Y0026048D01*
X0070786Y0026035D01*
X0070714Y0026018D01*
X0070643Y0025996D01*
X0070572Y0025972D01*
X0070504Y0025943D01*
X0070436Y0025911D01*
X0070371Y0025875D01*
X0070308Y0025837D01*
X0070246Y0025794D01*
X0070187Y0025749D01*
X0070130Y0025701D01*
X0070076Y0025650D01*
X0070025Y0025596D01*
X0069977Y0025539D01*
X0069932Y0025480D01*
X0069889Y0025418D01*
X0069851Y0025355D01*
X0069815Y0025290D01*
X0069783Y0025222D01*
X0069754Y0025154D01*
X0069730Y0025083D01*
X0069708Y0025012D01*
X0069691Y0024940D01*
X0069678Y0024866D01*
X0069668Y0024793D01*
X0069662Y0024718D01*
X0069660Y0024644D01*
X0065591Y0026067D02*
X0065591Y0021800D01*
X0073462Y0019667D02*
X0073817Y0019667D01*
X0073817Y0019666D02*
X0073881Y0019668D01*
X0073946Y0019674D01*
X0074009Y0019683D01*
X0074072Y0019697D01*
X0074134Y0019714D01*
X0074195Y0019735D01*
X0074255Y0019760D01*
X0074313Y0019788D01*
X0074369Y0019820D01*
X0074423Y0019855D01*
X0074475Y0019893D01*
X0074525Y0019934D01*
X0074571Y0019979D01*
X0074616Y0020025D01*
X0074657Y0020075D01*
X0074695Y0020127D01*
X0074730Y0020181D01*
X0074762Y0020237D01*
X0074790Y0020295D01*
X0074815Y0020355D01*
X0074836Y0020416D01*
X0074853Y0020478D01*
X0074867Y0020541D01*
X0074876Y0020604D01*
X0074882Y0020669D01*
X0074884Y0020733D01*
X0074884Y0026067D01*
X0075062Y0027844D02*
X0074706Y0027844D01*
X0074706Y0028200D01*
X0075062Y0028200D01*
X0075062Y0027844D01*
X0077455Y0024644D02*
X0077455Y0022867D01*
X0077455Y0023933D02*
X0080299Y0023933D01*
X0080299Y0024644D01*
X0080297Y0024718D01*
X0080291Y0024793D01*
X0080281Y0024866D01*
X0080268Y0024940D01*
X0080251Y0025012D01*
X0080229Y0025083D01*
X0080205Y0025154D01*
X0080176Y0025222D01*
X0080144Y0025290D01*
X0080108Y0025355D01*
X0080070Y0025418D01*
X0080027Y0025480D01*
X0079982Y0025539D01*
X0079934Y0025596D01*
X0079883Y0025650D01*
X0079829Y0025701D01*
X0079772Y0025749D01*
X0079713Y0025794D01*
X0079651Y0025837D01*
X0079588Y0025875D01*
X0079523Y0025911D01*
X0079455Y0025943D01*
X0079387Y0025972D01*
X0079316Y0025996D01*
X0079245Y0026018D01*
X0079173Y0026035D01*
X0079099Y0026048D01*
X0079026Y0026058D01*
X0078951Y0026064D01*
X0078877Y0026066D01*
X0078803Y0026064D01*
X0078728Y0026058D01*
X0078655Y0026048D01*
X0078581Y0026035D01*
X0078509Y0026018D01*
X0078438Y0025996D01*
X0078367Y0025972D01*
X0078299Y0025943D01*
X0078231Y0025911D01*
X0078166Y0025875D01*
X0078103Y0025837D01*
X0078041Y0025794D01*
X0077982Y0025749D01*
X0077925Y0025701D01*
X0077871Y0025650D01*
X0077820Y0025596D01*
X0077772Y0025539D01*
X0077727Y0025480D01*
X0077684Y0025418D01*
X0077646Y0025355D01*
X0077610Y0025290D01*
X0077578Y0025222D01*
X0077549Y0025154D01*
X0077525Y0025083D01*
X0077503Y0025012D01*
X0077486Y0024940D01*
X0077473Y0024866D01*
X0077463Y0024793D01*
X0077457Y0024718D01*
X0077455Y0024644D01*
X0077455Y0022867D02*
X0077457Y0022803D01*
X0077463Y0022738D01*
X0077472Y0022675D01*
X0077486Y0022612D01*
X0077503Y0022550D01*
X0077524Y0022489D01*
X0077549Y0022429D01*
X0077577Y0022371D01*
X0077609Y0022315D01*
X0077644Y0022261D01*
X0077682Y0022209D01*
X0077723Y0022159D01*
X0077768Y0022113D01*
X0077814Y0022068D01*
X0077864Y0022027D01*
X0077916Y0021989D01*
X0077970Y0021954D01*
X0078026Y0021922D01*
X0078084Y0021894D01*
X0078144Y0021869D01*
X0078205Y0021848D01*
X0078267Y0021831D01*
X0078330Y0021817D01*
X0078393Y0021808D01*
X0078458Y0021802D01*
X0078522Y0021800D01*
X0080299Y0021800D01*
X0082795Y0022867D02*
X0082795Y0025000D01*
X0082797Y0025064D01*
X0082803Y0025129D01*
X0082812Y0025192D01*
X0082826Y0025255D01*
X0082843Y0025317D01*
X0082864Y0025378D01*
X0082889Y0025438D01*
X0082917Y0025496D01*
X0082949Y0025552D01*
X0082984Y0025606D01*
X0083022Y0025658D01*
X0083063Y0025708D01*
X0083108Y0025754D01*
X0083154Y0025799D01*
X0083204Y0025840D01*
X0083256Y0025878D01*
X0083310Y0025913D01*
X0083366Y0025945D01*
X0083424Y0025973D01*
X0083484Y0025998D01*
X0083545Y0026019D01*
X0083607Y0026036D01*
X0083670Y0026050D01*
X0083733Y0026059D01*
X0083798Y0026065D01*
X0083862Y0026067D01*
X0085284Y0026067D01*
X0086996Y0026067D02*
X0089129Y0026067D01*
X0087707Y0028200D02*
X0087707Y0022867D01*
X0087709Y0022803D01*
X0087715Y0022738D01*
X0087724Y0022675D01*
X0087738Y0022612D01*
X0087755Y0022550D01*
X0087776Y0022489D01*
X0087801Y0022429D01*
X0087829Y0022371D01*
X0087861Y0022315D01*
X0087896Y0022261D01*
X0087934Y0022209D01*
X0087975Y0022159D01*
X0088020Y0022113D01*
X0088066Y0022068D01*
X0088116Y0022027D01*
X0088168Y0021989D01*
X0088222Y0021954D01*
X0088278Y0021922D01*
X0088336Y0021894D01*
X0088396Y0021869D01*
X0088457Y0021848D01*
X0088519Y0021831D01*
X0088582Y0021817D01*
X0088645Y0021808D01*
X0088710Y0021802D01*
X0088774Y0021800D01*
X0089129Y0021800D01*
X0085284Y0021800D02*
X0083862Y0021800D01*
X0083798Y0021802D01*
X0083733Y0021808D01*
X0083670Y0021817D01*
X0083607Y0021831D01*
X0083545Y0021848D01*
X0083484Y0021869D01*
X0083424Y0021894D01*
X0083366Y0021922D01*
X0083310Y0021954D01*
X0083256Y0021989D01*
X0083204Y0022027D01*
X0083154Y0022068D01*
X0083108Y0022113D01*
X0083063Y0022159D01*
X0083022Y0022209D01*
X0082984Y0022261D01*
X0082949Y0022315D01*
X0082917Y0022371D01*
X0082889Y0022429D01*
X0082864Y0022489D01*
X0082843Y0022550D01*
X0082826Y0022612D01*
X0082812Y0022675D01*
X0082803Y0022738D01*
X0082797Y0022803D01*
X0082795Y0022867D01*
X0108800Y0031800D02*
X0108800Y0045800D01*
X0111800Y0048800D01*
X0108800Y0031800D02*
X0111800Y0028800D01*
X0145800Y0028800D01*
X0148800Y0031800D01*
X0148800Y0045800D01*
X0145800Y0048800D01*
X0146300Y0070300D02*
X0151300Y0070300D01*
X0151387Y0070302D01*
X0151474Y0070308D01*
X0151561Y0070317D01*
X0151647Y0070330D01*
X0151733Y0070347D01*
X0151818Y0070368D01*
X0151901Y0070393D01*
X0151984Y0070421D01*
X0152065Y0070452D01*
X0152145Y0070487D01*
X0152223Y0070526D01*
X0152300Y0070568D01*
X0152375Y0070613D01*
X0152447Y0070662D01*
X0152518Y0070713D01*
X0152586Y0070768D01*
X0152651Y0070825D01*
X0152714Y0070886D01*
X0152775Y0070949D01*
X0152832Y0071014D01*
X0152887Y0071082D01*
X0152938Y0071153D01*
X0152987Y0071225D01*
X0153032Y0071300D01*
X0153074Y0071377D01*
X0153113Y0071455D01*
X0153148Y0071535D01*
X0153179Y0071616D01*
X0153207Y0071699D01*
X0153232Y0071782D01*
X0153253Y0071867D01*
X0153270Y0071953D01*
X0153283Y0072039D01*
X0153292Y0072126D01*
X0153298Y0072213D01*
X0153300Y0072300D01*
X0153300Y0085300D01*
X0153298Y0085387D01*
X0153292Y0085474D01*
X0153283Y0085561D01*
X0153270Y0085647D01*
X0153253Y0085733D01*
X0153232Y0085818D01*
X0153207Y0085901D01*
X0153179Y0085984D01*
X0153148Y0086065D01*
X0153113Y0086145D01*
X0153074Y0086223D01*
X0153032Y0086300D01*
X0152987Y0086375D01*
X0152938Y0086447D01*
X0152887Y0086518D01*
X0152832Y0086586D01*
X0152775Y0086651D01*
X0152714Y0086714D01*
X0152651Y0086775D01*
X0152586Y0086832D01*
X0152518Y0086887D01*
X0152447Y0086938D01*
X0152375Y0086987D01*
X0152300Y0087032D01*
X0152223Y0087074D01*
X0152145Y0087113D01*
X0152065Y0087148D01*
X0151984Y0087179D01*
X0151901Y0087207D01*
X0151818Y0087232D01*
X0151733Y0087253D01*
X0151647Y0087270D01*
X0151561Y0087283D01*
X0151474Y0087292D01*
X0151387Y0087298D01*
X0151300Y0087300D01*
X0146300Y0087300D01*
X0146213Y0087298D01*
X0146126Y0087292D01*
X0146039Y0087283D01*
X0145953Y0087270D01*
X0145867Y0087253D01*
X0145782Y0087232D01*
X0145699Y0087207D01*
X0145616Y0087179D01*
X0145535Y0087148D01*
X0145455Y0087113D01*
X0145377Y0087074D01*
X0145300Y0087032D01*
X0145225Y0086987D01*
X0145153Y0086938D01*
X0145082Y0086887D01*
X0145014Y0086832D01*
X0144949Y0086775D01*
X0144886Y0086714D01*
X0144825Y0086651D01*
X0144768Y0086586D01*
X0144713Y0086518D01*
X0144662Y0086447D01*
X0144613Y0086375D01*
X0144568Y0086300D01*
X0144526Y0086223D01*
X0144487Y0086145D01*
X0144452Y0086065D01*
X0144421Y0085984D01*
X0144393Y0085901D01*
X0144368Y0085818D01*
X0144347Y0085733D01*
X0144330Y0085647D01*
X0144317Y0085561D01*
X0144308Y0085474D01*
X0144302Y0085387D01*
X0144300Y0085300D01*
X0144300Y0072300D01*
X0144302Y0072213D01*
X0144308Y0072126D01*
X0144317Y0072039D01*
X0144330Y0071953D01*
X0144347Y0071867D01*
X0144368Y0071782D01*
X0144393Y0071699D01*
X0144421Y0071616D01*
X0144452Y0071535D01*
X0144487Y0071455D01*
X0144526Y0071377D01*
X0144568Y0071300D01*
X0144613Y0071225D01*
X0144662Y0071153D01*
X0144713Y0071082D01*
X0144768Y0071014D01*
X0144825Y0070949D01*
X0144886Y0070886D01*
X0144949Y0070825D01*
X0145014Y0070768D01*
X0145082Y0070713D01*
X0145153Y0070662D01*
X0145225Y0070613D01*
X0145300Y0070568D01*
X0145377Y0070526D01*
X0145455Y0070487D01*
X0145535Y0070452D01*
X0145616Y0070421D01*
X0145699Y0070393D01*
X0145782Y0070368D01*
X0145867Y0070347D01*
X0145953Y0070330D01*
X0146039Y0070317D01*
X0146126Y0070308D01*
X0146213Y0070302D01*
X0146300Y0070300D01*
X0123300Y0072300D02*
X0123300Y0085300D01*
X0123298Y0085387D01*
X0123292Y0085474D01*
X0123283Y0085561D01*
X0123270Y0085647D01*
X0123253Y0085733D01*
X0123232Y0085818D01*
X0123207Y0085901D01*
X0123179Y0085984D01*
X0123148Y0086065D01*
X0123113Y0086145D01*
X0123074Y0086223D01*
X0123032Y0086300D01*
X0122987Y0086375D01*
X0122938Y0086447D01*
X0122887Y0086518D01*
X0122832Y0086586D01*
X0122775Y0086651D01*
X0122714Y0086714D01*
X0122651Y0086775D01*
X0122586Y0086832D01*
X0122518Y0086887D01*
X0122447Y0086938D01*
X0122375Y0086987D01*
X0122300Y0087032D01*
X0122223Y0087074D01*
X0122145Y0087113D01*
X0122065Y0087148D01*
X0121984Y0087179D01*
X0121901Y0087207D01*
X0121818Y0087232D01*
X0121733Y0087253D01*
X0121647Y0087270D01*
X0121561Y0087283D01*
X0121474Y0087292D01*
X0121387Y0087298D01*
X0121300Y0087300D01*
X0116300Y0087300D01*
X0116213Y0087298D01*
X0116126Y0087292D01*
X0116039Y0087283D01*
X0115953Y0087270D01*
X0115867Y0087253D01*
X0115782Y0087232D01*
X0115699Y0087207D01*
X0115616Y0087179D01*
X0115535Y0087148D01*
X0115455Y0087113D01*
X0115377Y0087074D01*
X0115300Y0087032D01*
X0115225Y0086987D01*
X0115153Y0086938D01*
X0115082Y0086887D01*
X0115014Y0086832D01*
X0114949Y0086775D01*
X0114886Y0086714D01*
X0114825Y0086651D01*
X0114768Y0086586D01*
X0114713Y0086518D01*
X0114662Y0086447D01*
X0114613Y0086375D01*
X0114568Y0086300D01*
X0114526Y0086223D01*
X0114487Y0086145D01*
X0114452Y0086065D01*
X0114421Y0085984D01*
X0114393Y0085901D01*
X0114368Y0085818D01*
X0114347Y0085733D01*
X0114330Y0085647D01*
X0114317Y0085561D01*
X0114308Y0085474D01*
X0114302Y0085387D01*
X0114300Y0085300D01*
X0114300Y0072300D01*
X0114302Y0072213D01*
X0114308Y0072126D01*
X0114317Y0072039D01*
X0114330Y0071953D01*
X0114347Y0071867D01*
X0114368Y0071782D01*
X0114393Y0071699D01*
X0114421Y0071616D01*
X0114452Y0071535D01*
X0114487Y0071455D01*
X0114526Y0071377D01*
X0114568Y0071300D01*
X0114613Y0071225D01*
X0114662Y0071153D01*
X0114713Y0071082D01*
X0114768Y0071014D01*
X0114825Y0070949D01*
X0114886Y0070886D01*
X0114949Y0070825D01*
X0115014Y0070768D01*
X0115082Y0070713D01*
X0115153Y0070662D01*
X0115225Y0070613D01*
X0115300Y0070568D01*
X0115377Y0070526D01*
X0115455Y0070487D01*
X0115535Y0070452D01*
X0115616Y0070421D01*
X0115699Y0070393D01*
X0115782Y0070368D01*
X0115867Y0070347D01*
X0115953Y0070330D01*
X0116039Y0070317D01*
X0116126Y0070308D01*
X0116213Y0070302D01*
X0116300Y0070300D01*
X0121300Y0070300D01*
X0121387Y0070302D01*
X0121474Y0070308D01*
X0121561Y0070317D01*
X0121647Y0070330D01*
X0121733Y0070347D01*
X0121818Y0070368D01*
X0121901Y0070393D01*
X0121984Y0070421D01*
X0122065Y0070452D01*
X0122145Y0070487D01*
X0122223Y0070526D01*
X0122300Y0070568D01*
X0122375Y0070613D01*
X0122447Y0070662D01*
X0122518Y0070713D01*
X0122586Y0070768D01*
X0122651Y0070825D01*
X0122714Y0070886D01*
X0122775Y0070949D01*
X0122832Y0071014D01*
X0122887Y0071082D01*
X0122938Y0071153D01*
X0122987Y0071225D01*
X0123032Y0071300D01*
X0123074Y0071377D01*
X0123113Y0071455D01*
X0123148Y0071535D01*
X0123179Y0071616D01*
X0123207Y0071699D01*
X0123232Y0071782D01*
X0123253Y0071867D01*
X0123270Y0071953D01*
X0123283Y0072039D01*
X0123292Y0072126D01*
X0123298Y0072213D01*
X0123300Y0072300D01*
X0093800Y0065900D02*
X0093800Y0088900D01*
X0053800Y0088900D01*
X0053800Y0081400D01*
X0053926Y0081398D01*
X0054051Y0081392D01*
X0054176Y0081382D01*
X0054301Y0081368D01*
X0054426Y0081351D01*
X0054550Y0081329D01*
X0054673Y0081304D01*
X0054795Y0081274D01*
X0054916Y0081241D01*
X0055036Y0081204D01*
X0055155Y0081164D01*
X0055272Y0081119D01*
X0055389Y0081071D01*
X0055503Y0081019D01*
X0055616Y0080964D01*
X0055727Y0080905D01*
X0055836Y0080843D01*
X0055943Y0080777D01*
X0056048Y0080708D01*
X0056151Y0080636D01*
X0056252Y0080561D01*
X0056350Y0080482D01*
X0056445Y0080400D01*
X0056538Y0080316D01*
X0056628Y0080228D01*
X0056716Y0080138D01*
X0056800Y0080045D01*
X0056882Y0079950D01*
X0056961Y0079852D01*
X0057036Y0079751D01*
X0057108Y0079648D01*
X0057177Y0079543D01*
X0057243Y0079436D01*
X0057305Y0079327D01*
X0057364Y0079216D01*
X0057419Y0079103D01*
X0057471Y0078989D01*
X0057519Y0078872D01*
X0057564Y0078755D01*
X0057604Y0078636D01*
X0057641Y0078516D01*
X0057674Y0078395D01*
X0057704Y0078273D01*
X0057729Y0078150D01*
X0057751Y0078026D01*
X0057768Y0077901D01*
X0057782Y0077776D01*
X0057792Y0077651D01*
X0057798Y0077526D01*
X0057800Y0077400D01*
X0057798Y0077274D01*
X0057792Y0077149D01*
X0057782Y0077024D01*
X0057768Y0076899D01*
X0057751Y0076774D01*
X0057729Y0076650D01*
X0057704Y0076527D01*
X0057674Y0076405D01*
X0057641Y0076284D01*
X0057604Y0076164D01*
X0057564Y0076045D01*
X0057519Y0075928D01*
X0057471Y0075811D01*
X0057419Y0075697D01*
X0057364Y0075584D01*
X0057305Y0075473D01*
X0057243Y0075364D01*
X0057177Y0075257D01*
X0057108Y0075152D01*
X0057036Y0075049D01*
X0056961Y0074948D01*
X0056882Y0074850D01*
X0056800Y0074755D01*
X0056716Y0074662D01*
X0056628Y0074572D01*
X0056538Y0074484D01*
X0056445Y0074400D01*
X0056350Y0074318D01*
X0056252Y0074239D01*
X0056151Y0074164D01*
X0056048Y0074092D01*
X0055943Y0074023D01*
X0055836Y0073957D01*
X0055727Y0073895D01*
X0055616Y0073836D01*
X0055503Y0073781D01*
X0055389Y0073729D01*
X0055272Y0073681D01*
X0055155Y0073636D01*
X0055036Y0073596D01*
X0054916Y0073559D01*
X0054795Y0073526D01*
X0054673Y0073496D01*
X0054550Y0073471D01*
X0054426Y0073449D01*
X0054301Y0073432D01*
X0054176Y0073418D01*
X0054051Y0073408D01*
X0053926Y0073402D01*
X0053800Y0073400D01*
X0053800Y0065900D01*
X0093800Y0065900D01*
X0185552Y0112300D02*
X0202048Y0112300D01*
X0202674Y0117800D02*
X0204253Y0117800D01*
X0194926Y0117800D02*
X0192674Y0117800D01*
X0185554Y0112300D02*
X0185399Y0112502D01*
X0185248Y0112707D01*
X0185103Y0112916D01*
X0184963Y0113129D01*
X0184828Y0113345D01*
X0184699Y0113564D01*
X0184575Y0113786D01*
X0184456Y0114011D01*
X0184342Y0114239D01*
X0184235Y0114469D01*
X0184133Y0114702D01*
X0184036Y0114938D01*
X0183945Y0115176D01*
X0183860Y0115416D01*
X0183781Y0115658D01*
X0183708Y0115901D01*
X0183641Y0116147D01*
X0183579Y0116394D01*
X0183524Y0116642D01*
X0183475Y0116892D01*
X0183432Y0117143D01*
X0183395Y0117394D01*
X0183364Y0117647D01*
X0183339Y0117900D01*
X0183320Y0118154D01*
X0183307Y0118408D01*
X0183301Y0118663D01*
X0183301Y0118917D01*
X0183307Y0119172D01*
X0183319Y0119426D01*
X0183337Y0119680D01*
X0183361Y0119933D01*
X0183392Y0120186D01*
X0183428Y0120437D01*
X0183471Y0120688D01*
X0183520Y0120938D01*
X0183575Y0121187D01*
X0183636Y0121434D01*
X0183702Y0121679D01*
X0183775Y0121923D01*
X0183854Y0122165D01*
X0183938Y0122405D01*
X0184029Y0122643D01*
X0184125Y0122879D01*
X0184226Y0123112D01*
X0184334Y0123343D01*
X0184447Y0123571D01*
X0184565Y0123796D01*
X0184689Y0124019D01*
X0184818Y0124238D01*
X0184952Y0124454D01*
X0185092Y0124667D01*
X0185237Y0124876D01*
X0185386Y0125082D01*
X0185541Y0125284D01*
X0185701Y0125482D01*
X0185865Y0125676D01*
X0186034Y0125867D01*
X0186208Y0126053D01*
X0186386Y0126235D01*
X0186568Y0126412D01*
X0186755Y0126585D01*
X0186945Y0126754D01*
X0187140Y0126918D01*
X0187339Y0127077D01*
X0187541Y0127231D01*
X0187747Y0127380D01*
X0187957Y0127524D01*
X0188170Y0127663D01*
X0188387Y0127797D01*
X0188606Y0127926D01*
X0188829Y0128049D01*
X0189055Y0128167D01*
X0189283Y0128279D01*
X0189514Y0128385D01*
X0189748Y0128487D01*
X0189984Y0128582D01*
X0190222Y0128672D01*
X0190462Y0128755D01*
X0190704Y0128833D01*
X0196898Y0128833D02*
X0197140Y0128755D01*
X0197380Y0128671D01*
X0197618Y0128582D01*
X0197854Y0128487D01*
X0198088Y0128385D01*
X0198319Y0128279D01*
X0198547Y0128166D01*
X0198773Y0128049D01*
X0198996Y0127926D01*
X0199215Y0127797D01*
X0199432Y0127663D01*
X0199645Y0127524D01*
X0199855Y0127380D01*
X0200061Y0127231D01*
X0200263Y0127077D01*
X0200462Y0126918D01*
X0200657Y0126754D01*
X0200848Y0126585D01*
X0201034Y0126412D01*
X0201217Y0126235D01*
X0201395Y0126053D01*
X0201568Y0125867D01*
X0201737Y0125676D01*
X0201901Y0125482D01*
X0202061Y0125284D01*
X0202216Y0125082D01*
X0202365Y0124876D01*
X0202510Y0124667D01*
X0202650Y0124454D01*
X0202784Y0124238D01*
X0202913Y0124018D01*
X0203037Y0123796D01*
X0203156Y0123571D01*
X0203268Y0123343D01*
X0203376Y0123112D01*
X0203477Y0122879D01*
X0203573Y0122643D01*
X0203664Y0122405D01*
X0203748Y0122165D01*
X0203827Y0121923D01*
X0203900Y0121679D01*
X0203966Y0121433D01*
X0204027Y0121186D01*
X0204082Y0120938D01*
X0204131Y0120688D01*
X0204174Y0120437D01*
X0204210Y0120185D01*
X0204241Y0119933D01*
X0204265Y0119679D01*
X0204283Y0119426D01*
X0204295Y0119171D01*
X0204301Y0118917D01*
X0204301Y0118662D01*
X0204295Y0118408D01*
X0204282Y0118154D01*
X0204263Y0117900D01*
X0204238Y0117647D01*
X0204207Y0117394D01*
X0204170Y0117142D01*
X0204127Y0116892D01*
X0204078Y0116642D01*
X0204022Y0116393D01*
X0203961Y0116146D01*
X0203894Y0115901D01*
X0203821Y0115657D01*
X0203742Y0115415D01*
X0203657Y0115176D01*
X0203566Y0114938D01*
X0203469Y0114702D01*
X0203367Y0114469D01*
X0203259Y0114239D01*
X0203146Y0114011D01*
X0203027Y0113786D01*
X0202903Y0113564D01*
X0202773Y0113345D01*
X0202639Y0113129D01*
X0202499Y0112916D01*
X0202353Y0112707D01*
X0202203Y0112502D01*
X0202048Y0112300D01*
X0184926Y0117800D02*
X0183347Y0117800D01*
D11*
X0151800Y0080100D02*
X0145800Y0080100D01*
X0145800Y0077600D02*
X0151800Y0077600D01*
X0121800Y0077600D02*
X0115800Y0077600D01*
X0115800Y0080100D02*
X0121800Y0080100D01*
D12*
X0118650Y0088650D02*
X0116150Y0088650D01*
X0116090Y0088652D01*
X0116029Y0088657D01*
X0115970Y0088666D01*
X0115911Y0088679D01*
X0115852Y0088695D01*
X0115795Y0088715D01*
X0115740Y0088738D01*
X0115685Y0088765D01*
X0115633Y0088794D01*
X0115582Y0088827D01*
X0115533Y0088863D01*
X0115487Y0088901D01*
X0115443Y0088943D01*
X0115401Y0088987D01*
X0115363Y0089033D01*
X0115327Y0089082D01*
X0115294Y0089133D01*
X0115265Y0089185D01*
X0115238Y0089240D01*
X0115215Y0089295D01*
X0115195Y0089352D01*
X0115179Y0089411D01*
X0115166Y0089470D01*
X0115157Y0089529D01*
X0115152Y0089590D01*
X0115150Y0089650D01*
X0115150Y0090650D01*
X0118650Y0088650D02*
X0118710Y0088652D01*
X0118771Y0088657D01*
X0118830Y0088666D01*
X0118889Y0088679D01*
X0118948Y0088695D01*
X0119005Y0088715D01*
X0119060Y0088738D01*
X0119115Y0088765D01*
X0119167Y0088794D01*
X0119218Y0088827D01*
X0119267Y0088863D01*
X0119313Y0088901D01*
X0119357Y0088943D01*
X0119399Y0088987D01*
X0119437Y0089033D01*
X0119473Y0089082D01*
X0119506Y0089133D01*
X0119535Y0089185D01*
X0119562Y0089240D01*
X0119585Y0089295D01*
X0119605Y0089352D01*
X0119621Y0089411D01*
X0119634Y0089470D01*
X0119643Y0089529D01*
X0119648Y0089590D01*
X0119650Y0089650D01*
X0119650Y0090650D01*
X0119650Y0092415D02*
X0119650Y0094915D01*
X0119650Y0092415D02*
X0117150Y0094540D01*
X0115150Y0093790D02*
X0115152Y0093717D01*
X0115157Y0093645D01*
X0115166Y0093573D01*
X0115179Y0093501D01*
X0115195Y0093430D01*
X0115215Y0093360D01*
X0115239Y0093292D01*
X0115265Y0093224D01*
X0115296Y0093158D01*
X0115329Y0093093D01*
X0115366Y0093031D01*
X0115405Y0092970D01*
X0115448Y0092911D01*
X0115494Y0092854D01*
X0115542Y0092800D01*
X0115593Y0092749D01*
X0115647Y0092699D01*
X0115703Y0092653D01*
X0115761Y0092610D01*
X0115822Y0092569D01*
X0115884Y0092532D01*
X0115948Y0092498D01*
X0116014Y0092467D01*
X0116081Y0092439D01*
X0116150Y0092415D01*
X0117150Y0094539D02*
X0117104Y0094585D01*
X0117055Y0094629D01*
X0117004Y0094669D01*
X0116951Y0094707D01*
X0116896Y0094742D01*
X0116839Y0094774D01*
X0116781Y0094803D01*
X0116721Y0094829D01*
X0116659Y0094851D01*
X0116597Y0094870D01*
X0116534Y0094886D01*
X0116470Y0094898D01*
X0116405Y0094907D01*
X0116340Y0094912D01*
X0116275Y0094914D01*
X0116275Y0094915D02*
X0116210Y0094913D01*
X0116144Y0094907D01*
X0116080Y0094898D01*
X0116016Y0094885D01*
X0115952Y0094868D01*
X0115890Y0094847D01*
X0115829Y0094823D01*
X0115770Y0094795D01*
X0115713Y0094764D01*
X0115657Y0094730D01*
X0115603Y0094692D01*
X0115552Y0094652D01*
X0115503Y0094608D01*
X0115457Y0094562D01*
X0115413Y0094513D01*
X0115373Y0094462D01*
X0115335Y0094408D01*
X0115301Y0094353D01*
X0115270Y0094295D01*
X0115242Y0094236D01*
X0115218Y0094175D01*
X0115197Y0094113D01*
X0115180Y0094049D01*
X0115167Y0093985D01*
X0115158Y0093921D01*
X0115152Y0093855D01*
X0115150Y0093790D01*
X0130554Y0112300D02*
X0147046Y0112300D01*
X0147673Y0117800D02*
X0149252Y0117800D01*
X0152800Y0121550D02*
X0152800Y0126050D01*
X0151550Y0126050D02*
X0154050Y0126050D01*
X0157875Y0124050D02*
X0157921Y0124096D01*
X0157965Y0124145D01*
X0158005Y0124196D01*
X0158043Y0124249D01*
X0158078Y0124304D01*
X0158110Y0124361D01*
X0158139Y0124419D01*
X0158165Y0124479D01*
X0158187Y0124541D01*
X0158206Y0124603D01*
X0158222Y0124666D01*
X0158234Y0124730D01*
X0158243Y0124795D01*
X0158248Y0124860D01*
X0158250Y0124925D01*
X0157875Y0124050D02*
X0155750Y0121550D01*
X0158250Y0121550D01*
X0155750Y0125050D02*
X0155774Y0125119D01*
X0155802Y0125186D01*
X0155833Y0125252D01*
X0155867Y0125316D01*
X0155904Y0125378D01*
X0155945Y0125439D01*
X0155988Y0125497D01*
X0156034Y0125553D01*
X0156084Y0125607D01*
X0156135Y0125658D01*
X0156189Y0125706D01*
X0156246Y0125752D01*
X0156305Y0125795D01*
X0156366Y0125834D01*
X0156428Y0125871D01*
X0156493Y0125904D01*
X0156559Y0125935D01*
X0156627Y0125961D01*
X0156695Y0125985D01*
X0156765Y0126005D01*
X0156836Y0126021D01*
X0156908Y0126034D01*
X0156980Y0126043D01*
X0157052Y0126048D01*
X0157125Y0126050D01*
X0157190Y0126048D01*
X0157256Y0126042D01*
X0157320Y0126033D01*
X0157384Y0126020D01*
X0157448Y0126003D01*
X0157510Y0125982D01*
X0157571Y0125958D01*
X0157630Y0125930D01*
X0157688Y0125899D01*
X0157743Y0125865D01*
X0157797Y0125827D01*
X0157848Y0125787D01*
X0157897Y0125743D01*
X0157943Y0125697D01*
X0157987Y0125648D01*
X0158027Y0125597D01*
X0158065Y0125543D01*
X0158099Y0125488D01*
X0158130Y0125430D01*
X0158158Y0125371D01*
X0158182Y0125310D01*
X0158203Y0125248D01*
X0158220Y0125184D01*
X0158233Y0125120D01*
X0158242Y0125056D01*
X0158248Y0124990D01*
X0158250Y0124925D01*
X0139927Y0117800D02*
X0137673Y0117800D01*
X0130554Y0112300D02*
X0130401Y0112499D01*
X0130253Y0112701D01*
X0130110Y0112906D01*
X0129972Y0113115D01*
X0129839Y0113327D01*
X0129711Y0113542D01*
X0129589Y0113760D01*
X0129471Y0113981D01*
X0129359Y0114205D01*
X0129252Y0114431D01*
X0129151Y0114660D01*
X0129055Y0114891D01*
X0128964Y0115125D01*
X0128879Y0115360D01*
X0128800Y0115598D01*
X0128727Y0115837D01*
X0128659Y0116078D01*
X0128597Y0116320D01*
X0128541Y0116564D01*
X0128490Y0116810D01*
X0128446Y0117056D01*
X0128407Y0117303D01*
X0128375Y0117551D01*
X0128348Y0117800D01*
X0129927Y0117800D01*
X0128348Y0117800D02*
X0128326Y0118055D01*
X0128311Y0118311D01*
X0128303Y0118567D01*
X0128300Y0118824D01*
X0128304Y0119080D01*
X0128314Y0119336D01*
X0128330Y0119592D01*
X0128352Y0119847D01*
X0128381Y0120102D01*
X0128416Y0120356D01*
X0128457Y0120609D01*
X0128504Y0120861D01*
X0128558Y0121111D01*
X0128617Y0121360D01*
X0128683Y0121608D01*
X0128754Y0121854D01*
X0128832Y0122099D01*
X0128915Y0122341D01*
X0129004Y0122581D01*
X0129100Y0122819D01*
X0129201Y0123055D01*
X0129307Y0123288D01*
X0129420Y0123518D01*
X0129538Y0123746D01*
X0129661Y0123970D01*
X0129790Y0124192D01*
X0129924Y0124410D01*
X0130064Y0124625D01*
X0130209Y0124836D01*
X0130359Y0125044D01*
X0130513Y0125248D01*
X0130673Y0125449D01*
X0130838Y0125645D01*
X0131007Y0125837D01*
X0131182Y0126026D01*
X0131360Y0126209D01*
X0131543Y0126389D01*
X0131731Y0126564D01*
X0131922Y0126734D01*
X0132118Y0126899D01*
X0132318Y0127060D01*
X0132521Y0127216D01*
X0132728Y0127366D01*
X0132939Y0127512D01*
X0133154Y0127653D01*
X0133371Y0127788D01*
X0133592Y0127918D01*
X0133816Y0128042D01*
X0134043Y0128161D01*
X0134273Y0128274D01*
X0134506Y0128382D01*
X0134741Y0128484D01*
X0134979Y0128580D01*
X0135218Y0128670D01*
X0135460Y0128755D01*
X0135704Y0128833D01*
X0141896Y0128833D02*
X0142138Y0128755D01*
X0142378Y0128671D01*
X0142616Y0128582D01*
X0142852Y0128487D01*
X0143086Y0128385D01*
X0143317Y0128279D01*
X0143545Y0128166D01*
X0143771Y0128049D01*
X0143994Y0127926D01*
X0144213Y0127797D01*
X0144430Y0127663D01*
X0144643Y0127524D01*
X0144853Y0127380D01*
X0145059Y0127231D01*
X0145261Y0127077D01*
X0145460Y0126918D01*
X0145655Y0126754D01*
X0145846Y0126585D01*
X0146032Y0126412D01*
X0146215Y0126235D01*
X0146393Y0126053D01*
X0146566Y0125867D01*
X0146735Y0125676D01*
X0146899Y0125482D01*
X0147059Y0125284D01*
X0147214Y0125082D01*
X0147363Y0124876D01*
X0147508Y0124667D01*
X0147648Y0124454D01*
X0147782Y0124238D01*
X0147911Y0124018D01*
X0148035Y0123796D01*
X0148154Y0123571D01*
X0148266Y0123343D01*
X0148374Y0123112D01*
X0148475Y0122879D01*
X0148571Y0122643D01*
X0148662Y0122405D01*
X0148746Y0122165D01*
X0148825Y0121923D01*
X0148898Y0121679D01*
X0148964Y0121433D01*
X0149025Y0121186D01*
X0149080Y0120938D01*
X0149129Y0120688D01*
X0149172Y0120437D01*
X0149208Y0120185D01*
X0149239Y0119933D01*
X0149263Y0119679D01*
X0149281Y0119426D01*
X0149293Y0119171D01*
X0149299Y0118917D01*
X0149299Y0118662D01*
X0149293Y0118408D01*
X0149280Y0118154D01*
X0149261Y0117900D01*
X0149236Y0117647D01*
X0149205Y0117394D01*
X0149168Y0117142D01*
X0149125Y0116892D01*
X0149076Y0116642D01*
X0149020Y0116393D01*
X0148959Y0116146D01*
X0148892Y0115901D01*
X0148819Y0115657D01*
X0148740Y0115415D01*
X0148655Y0115176D01*
X0148564Y0114938D01*
X0148467Y0114702D01*
X0148365Y0114469D01*
X0148257Y0114239D01*
X0148144Y0114011D01*
X0148025Y0113786D01*
X0147901Y0113564D01*
X0147771Y0113345D01*
X0147637Y0113129D01*
X0147497Y0112916D01*
X0147351Y0112707D01*
X0147201Y0112502D01*
X0147046Y0112300D01*
X0149850Y0094515D02*
X0149850Y0092015D01*
X0149850Y0093265D02*
X0145350Y0093265D01*
X0146350Y0092015D01*
X0145350Y0090250D02*
X0145350Y0089250D01*
X0145352Y0089190D01*
X0145357Y0089129D01*
X0145366Y0089070D01*
X0145379Y0089011D01*
X0145395Y0088952D01*
X0145415Y0088895D01*
X0145438Y0088840D01*
X0145465Y0088785D01*
X0145494Y0088733D01*
X0145527Y0088682D01*
X0145563Y0088633D01*
X0145601Y0088587D01*
X0145643Y0088543D01*
X0145687Y0088501D01*
X0145733Y0088463D01*
X0145782Y0088427D01*
X0145833Y0088394D01*
X0145885Y0088365D01*
X0145940Y0088338D01*
X0145995Y0088315D01*
X0146052Y0088295D01*
X0146111Y0088279D01*
X0146170Y0088266D01*
X0146229Y0088257D01*
X0146290Y0088252D01*
X0146350Y0088250D01*
X0148850Y0088250D01*
X0148910Y0088252D01*
X0148971Y0088257D01*
X0149030Y0088266D01*
X0149089Y0088279D01*
X0149148Y0088295D01*
X0149205Y0088315D01*
X0149260Y0088338D01*
X0149315Y0088365D01*
X0149367Y0088394D01*
X0149418Y0088427D01*
X0149467Y0088463D01*
X0149513Y0088501D01*
X0149557Y0088543D01*
X0149599Y0088587D01*
X0149637Y0088633D01*
X0149673Y0088682D01*
X0149706Y0088733D01*
X0149735Y0088785D01*
X0149762Y0088840D01*
X0149785Y0088895D01*
X0149805Y0088952D01*
X0149821Y0089011D01*
X0149834Y0089070D01*
X0149843Y0089129D01*
X0149848Y0089190D01*
X0149850Y0089250D01*
X0149850Y0090250D01*
X0191561Y0101472D02*
X0191561Y0103372D01*
X0192088Y0103372D01*
X0192133Y0103370D01*
X0192177Y0103364D01*
X0192221Y0103355D01*
X0192264Y0103342D01*
X0192305Y0103325D01*
X0192346Y0103305D01*
X0192384Y0103281D01*
X0192420Y0103255D01*
X0192453Y0103225D01*
X0192484Y0103193D01*
X0192513Y0103158D01*
X0192538Y0103121D01*
X0192559Y0103082D01*
X0192578Y0103041D01*
X0192593Y0102999D01*
X0192604Y0102955D01*
X0192612Y0102911D01*
X0192616Y0102866D01*
X0192616Y0102822D01*
X0192612Y0102777D01*
X0192604Y0102733D01*
X0192593Y0102689D01*
X0192578Y0102647D01*
X0192559Y0102606D01*
X0192538Y0102567D01*
X0192513Y0102530D01*
X0192484Y0102495D01*
X0192453Y0102463D01*
X0192420Y0102433D01*
X0192384Y0102407D01*
X0192346Y0102383D01*
X0192305Y0102363D01*
X0192264Y0102346D01*
X0192221Y0102333D01*
X0192177Y0102324D01*
X0192133Y0102318D01*
X0192088Y0102316D01*
X0191561Y0102316D01*
X0193476Y0101472D02*
X0193898Y0101472D01*
X0193687Y0101472D02*
X0193687Y0103372D01*
X0193476Y0103372D02*
X0193898Y0103372D01*
X0194984Y0103372D02*
X0195512Y0103372D01*
X0195557Y0103370D01*
X0195601Y0103364D01*
X0195645Y0103355D01*
X0195688Y0103342D01*
X0195729Y0103325D01*
X0195770Y0103305D01*
X0195808Y0103281D01*
X0195844Y0103255D01*
X0195877Y0103225D01*
X0195908Y0103193D01*
X0195937Y0103158D01*
X0195962Y0103121D01*
X0195983Y0103082D01*
X0196002Y0103041D01*
X0196017Y0102999D01*
X0196028Y0102955D01*
X0196036Y0102911D01*
X0196040Y0102866D01*
X0196040Y0102822D01*
X0196036Y0102777D01*
X0196028Y0102733D01*
X0196017Y0102689D01*
X0196002Y0102647D01*
X0195983Y0102606D01*
X0195962Y0102567D01*
X0195937Y0102530D01*
X0195908Y0102495D01*
X0195877Y0102463D01*
X0195844Y0102433D01*
X0195808Y0102407D01*
X0195770Y0102383D01*
X0195729Y0102363D01*
X0195688Y0102346D01*
X0195645Y0102333D01*
X0195601Y0102324D01*
X0195557Y0102318D01*
X0195512Y0102316D01*
X0194984Y0102316D01*
X0195617Y0102316D02*
X0196039Y0101472D01*
X0194984Y0101472D02*
X0194984Y0103372D01*
X0207800Y0121550D02*
X0207800Y0126050D01*
X0206550Y0126050D02*
X0209050Y0126050D01*
X0210750Y0126050D02*
X0212250Y0126050D01*
X0212312Y0126048D01*
X0212373Y0126042D01*
X0212434Y0126033D01*
X0212494Y0126020D01*
X0212553Y0126003D01*
X0212611Y0125982D01*
X0212668Y0125958D01*
X0212723Y0125931D01*
X0212776Y0125900D01*
X0212828Y0125866D01*
X0212877Y0125829D01*
X0212924Y0125789D01*
X0212968Y0125746D01*
X0213009Y0125701D01*
X0213048Y0125653D01*
X0213084Y0125602D01*
X0213116Y0125550D01*
X0213145Y0125496D01*
X0213171Y0125440D01*
X0213193Y0125382D01*
X0213212Y0125324D01*
X0213227Y0125264D01*
X0213238Y0125203D01*
X0213246Y0125142D01*
X0213250Y0125081D01*
X0213250Y0125019D01*
X0213246Y0124958D01*
X0213238Y0124897D01*
X0213227Y0124836D01*
X0213212Y0124776D01*
X0213193Y0124718D01*
X0213171Y0124660D01*
X0213145Y0124604D01*
X0213116Y0124550D01*
X0213084Y0124498D01*
X0213048Y0124447D01*
X0213009Y0124399D01*
X0212968Y0124354D01*
X0212924Y0124311D01*
X0212877Y0124271D01*
X0212828Y0124234D01*
X0212776Y0124200D01*
X0212723Y0124169D01*
X0212668Y0124142D01*
X0212611Y0124118D01*
X0212553Y0124097D01*
X0212494Y0124080D01*
X0212434Y0124067D01*
X0212373Y0124058D01*
X0212312Y0124052D01*
X0212250Y0124050D01*
X0211250Y0124050D01*
X0212000Y0124050D02*
X0212069Y0124048D01*
X0212138Y0124042D01*
X0212206Y0124033D01*
X0212273Y0124020D01*
X0212340Y0124003D01*
X0212406Y0123982D01*
X0212470Y0123958D01*
X0212533Y0123930D01*
X0212595Y0123899D01*
X0212655Y0123865D01*
X0212712Y0123827D01*
X0212768Y0123786D01*
X0212821Y0123743D01*
X0212872Y0123696D01*
X0212920Y0123647D01*
X0212965Y0123595D01*
X0213007Y0123540D01*
X0213046Y0123484D01*
X0213083Y0123425D01*
X0213115Y0123364D01*
X0213145Y0123302D01*
X0213171Y0123238D01*
X0213193Y0123173D01*
X0213212Y0123107D01*
X0213227Y0123040D01*
X0213238Y0122972D01*
X0213246Y0122903D01*
X0213250Y0122834D01*
X0213250Y0122766D01*
X0213246Y0122697D01*
X0213238Y0122628D01*
X0213227Y0122560D01*
X0213212Y0122493D01*
X0213193Y0122427D01*
X0213171Y0122362D01*
X0213145Y0122298D01*
X0213115Y0122236D01*
X0213083Y0122175D01*
X0213046Y0122116D01*
X0213007Y0122060D01*
X0212965Y0122005D01*
X0212920Y0121953D01*
X0212872Y0121904D01*
X0212821Y0121857D01*
X0212768Y0121814D01*
X0212712Y0121773D01*
X0212655Y0121735D01*
X0212595Y0121701D01*
X0212533Y0121670D01*
X0212470Y0121642D01*
X0212406Y0121618D01*
X0212340Y0121597D01*
X0212273Y0121580D01*
X0212206Y0121567D01*
X0212138Y0121558D01*
X0212069Y0121552D01*
X0212000Y0121550D01*
X0210750Y0121550D01*
X0108250Y0121550D02*
X0105750Y0121550D01*
X0107000Y0121550D02*
X0107000Y0126050D01*
X0105750Y0125050D01*
X0104050Y0126050D02*
X0101550Y0126050D01*
X0102800Y0126050D02*
X0102800Y0121550D01*
X0099252Y0117800D02*
X0097673Y0117800D01*
X0097046Y0112300D02*
X0080554Y0112300D01*
X0079927Y0117800D02*
X0078348Y0117800D01*
X0087673Y0117800D02*
X0089927Y0117800D01*
X0080554Y0112300D02*
X0080401Y0112499D01*
X0080253Y0112701D01*
X0080110Y0112906D01*
X0079972Y0113115D01*
X0079839Y0113327D01*
X0079711Y0113542D01*
X0079589Y0113760D01*
X0079471Y0113981D01*
X0079359Y0114205D01*
X0079252Y0114431D01*
X0079151Y0114660D01*
X0079055Y0114891D01*
X0078964Y0115125D01*
X0078879Y0115360D01*
X0078800Y0115598D01*
X0078727Y0115837D01*
X0078659Y0116078D01*
X0078597Y0116320D01*
X0078541Y0116564D01*
X0078490Y0116810D01*
X0078446Y0117056D01*
X0078407Y0117303D01*
X0078375Y0117551D01*
X0078348Y0117800D01*
X0078326Y0118055D01*
X0078311Y0118311D01*
X0078303Y0118567D01*
X0078300Y0118824D01*
X0078304Y0119080D01*
X0078314Y0119336D01*
X0078330Y0119592D01*
X0078352Y0119847D01*
X0078381Y0120102D01*
X0078416Y0120356D01*
X0078457Y0120609D01*
X0078504Y0120861D01*
X0078558Y0121111D01*
X0078617Y0121360D01*
X0078683Y0121608D01*
X0078754Y0121854D01*
X0078832Y0122099D01*
X0078915Y0122341D01*
X0079004Y0122581D01*
X0079100Y0122819D01*
X0079201Y0123055D01*
X0079307Y0123288D01*
X0079420Y0123518D01*
X0079538Y0123746D01*
X0079661Y0123970D01*
X0079790Y0124192D01*
X0079924Y0124410D01*
X0080064Y0124625D01*
X0080209Y0124836D01*
X0080359Y0125044D01*
X0080513Y0125248D01*
X0080673Y0125449D01*
X0080838Y0125645D01*
X0081007Y0125837D01*
X0081182Y0126026D01*
X0081360Y0126209D01*
X0081543Y0126389D01*
X0081731Y0126564D01*
X0081922Y0126734D01*
X0082118Y0126899D01*
X0082318Y0127060D01*
X0082521Y0127216D01*
X0082728Y0127366D01*
X0082939Y0127512D01*
X0083154Y0127653D01*
X0083371Y0127788D01*
X0083592Y0127918D01*
X0083816Y0128042D01*
X0084043Y0128161D01*
X0084273Y0128274D01*
X0084506Y0128382D01*
X0084741Y0128484D01*
X0084979Y0128580D01*
X0085218Y0128670D01*
X0085460Y0128755D01*
X0085704Y0128833D01*
X0091896Y0128833D02*
X0092138Y0128755D01*
X0092378Y0128671D01*
X0092616Y0128582D01*
X0092852Y0128487D01*
X0093086Y0128385D01*
X0093317Y0128279D01*
X0093545Y0128166D01*
X0093771Y0128049D01*
X0093994Y0127926D01*
X0094213Y0127797D01*
X0094430Y0127663D01*
X0094643Y0127524D01*
X0094853Y0127380D01*
X0095059Y0127231D01*
X0095261Y0127077D01*
X0095460Y0126918D01*
X0095655Y0126754D01*
X0095846Y0126585D01*
X0096032Y0126412D01*
X0096215Y0126235D01*
X0096393Y0126053D01*
X0096566Y0125867D01*
X0096735Y0125676D01*
X0096899Y0125482D01*
X0097059Y0125284D01*
X0097214Y0125082D01*
X0097363Y0124876D01*
X0097508Y0124667D01*
X0097648Y0124454D01*
X0097782Y0124238D01*
X0097911Y0124018D01*
X0098035Y0123796D01*
X0098154Y0123571D01*
X0098266Y0123343D01*
X0098374Y0123112D01*
X0098475Y0122879D01*
X0098571Y0122643D01*
X0098662Y0122405D01*
X0098746Y0122165D01*
X0098825Y0121923D01*
X0098898Y0121679D01*
X0098964Y0121433D01*
X0099025Y0121186D01*
X0099080Y0120938D01*
X0099129Y0120688D01*
X0099172Y0120437D01*
X0099208Y0120185D01*
X0099239Y0119933D01*
X0099263Y0119679D01*
X0099281Y0119426D01*
X0099293Y0119171D01*
X0099299Y0118917D01*
X0099299Y0118662D01*
X0099293Y0118408D01*
X0099280Y0118154D01*
X0099261Y0117900D01*
X0099236Y0117647D01*
X0099205Y0117394D01*
X0099168Y0117142D01*
X0099125Y0116892D01*
X0099076Y0116642D01*
X0099020Y0116393D01*
X0098959Y0116146D01*
X0098892Y0115901D01*
X0098819Y0115657D01*
X0098740Y0115415D01*
X0098655Y0115176D01*
X0098564Y0114938D01*
X0098467Y0114702D01*
X0098365Y0114469D01*
X0098257Y0114239D01*
X0098144Y0114011D01*
X0098025Y0113786D01*
X0097901Y0113564D01*
X0097771Y0113345D01*
X0097637Y0113129D01*
X0097497Y0112916D01*
X0097351Y0112707D01*
X0097201Y0112502D01*
X0097046Y0112300D01*
X0085100Y0079650D02*
X0082600Y0079650D01*
X0082600Y0077650D01*
X0084100Y0077650D01*
X0084160Y0077648D01*
X0084221Y0077643D01*
X0084280Y0077634D01*
X0084339Y0077621D01*
X0084398Y0077605D01*
X0084455Y0077585D01*
X0084510Y0077562D01*
X0084565Y0077535D01*
X0084617Y0077506D01*
X0084668Y0077473D01*
X0084717Y0077437D01*
X0084763Y0077399D01*
X0084807Y0077357D01*
X0084849Y0077313D01*
X0084887Y0077267D01*
X0084923Y0077218D01*
X0084956Y0077167D01*
X0084985Y0077115D01*
X0085012Y0077060D01*
X0085035Y0077005D01*
X0085055Y0076948D01*
X0085071Y0076889D01*
X0085084Y0076830D01*
X0085093Y0076771D01*
X0085098Y0076710D01*
X0085100Y0076650D01*
X0085100Y0076150D01*
X0085098Y0076090D01*
X0085093Y0076029D01*
X0085084Y0075970D01*
X0085071Y0075911D01*
X0085055Y0075852D01*
X0085035Y0075795D01*
X0085012Y0075740D01*
X0084985Y0075685D01*
X0084956Y0075633D01*
X0084923Y0075582D01*
X0084887Y0075533D01*
X0084849Y0075487D01*
X0084807Y0075443D01*
X0084763Y0075401D01*
X0084717Y0075363D01*
X0084668Y0075327D01*
X0084617Y0075294D01*
X0084565Y0075265D01*
X0084510Y0075238D01*
X0084455Y0075215D01*
X0084398Y0075195D01*
X0084339Y0075179D01*
X0084280Y0075166D01*
X0084221Y0075157D01*
X0084160Y0075152D01*
X0084100Y0075150D01*
X0082600Y0075150D01*
X0080600Y0076150D02*
X0080600Y0076650D01*
X0080598Y0076710D01*
X0080593Y0076771D01*
X0080584Y0076830D01*
X0080571Y0076889D01*
X0080555Y0076948D01*
X0080535Y0077005D01*
X0080512Y0077060D01*
X0080485Y0077115D01*
X0080456Y0077167D01*
X0080423Y0077218D01*
X0080387Y0077267D01*
X0080349Y0077313D01*
X0080307Y0077357D01*
X0080263Y0077399D01*
X0080217Y0077437D01*
X0080168Y0077473D01*
X0080117Y0077506D01*
X0080065Y0077535D01*
X0080010Y0077562D01*
X0079955Y0077585D01*
X0079898Y0077605D01*
X0079839Y0077621D01*
X0079780Y0077634D01*
X0079721Y0077643D01*
X0079660Y0077648D01*
X0079600Y0077650D01*
X0078100Y0077650D01*
X0078100Y0079650D01*
X0080600Y0079650D01*
X0080600Y0076150D02*
X0080598Y0076090D01*
X0080593Y0076029D01*
X0080584Y0075970D01*
X0080571Y0075911D01*
X0080555Y0075852D01*
X0080535Y0075795D01*
X0080512Y0075740D01*
X0080485Y0075685D01*
X0080456Y0075633D01*
X0080423Y0075582D01*
X0080387Y0075533D01*
X0080349Y0075487D01*
X0080307Y0075443D01*
X0080263Y0075401D01*
X0080217Y0075363D01*
X0080168Y0075327D01*
X0080117Y0075294D01*
X0080065Y0075265D01*
X0080010Y0075238D01*
X0079955Y0075215D01*
X0079898Y0075195D01*
X0079839Y0075179D01*
X0079780Y0075166D01*
X0079721Y0075157D01*
X0079660Y0075152D01*
X0079600Y0075150D01*
X0078100Y0075150D01*
X0076100Y0076150D02*
X0076100Y0076650D01*
X0076098Y0076710D01*
X0076093Y0076771D01*
X0076084Y0076830D01*
X0076071Y0076889D01*
X0076055Y0076948D01*
X0076035Y0077005D01*
X0076012Y0077060D01*
X0075985Y0077115D01*
X0075956Y0077167D01*
X0075923Y0077218D01*
X0075887Y0077267D01*
X0075849Y0077313D01*
X0075807Y0077357D01*
X0075763Y0077399D01*
X0075717Y0077437D01*
X0075668Y0077473D01*
X0075617Y0077506D01*
X0075565Y0077535D01*
X0075510Y0077562D01*
X0075455Y0077585D01*
X0075398Y0077605D01*
X0075339Y0077621D01*
X0075280Y0077634D01*
X0075221Y0077643D01*
X0075160Y0077648D01*
X0075100Y0077650D01*
X0073600Y0077650D01*
X0073600Y0079650D01*
X0076100Y0079650D01*
X0071860Y0079650D02*
X0069860Y0079650D01*
X0069860Y0075150D01*
X0071860Y0075150D01*
X0073600Y0075150D02*
X0075100Y0075150D01*
X0075160Y0075152D01*
X0075221Y0075157D01*
X0075280Y0075166D01*
X0075339Y0075179D01*
X0075398Y0075195D01*
X0075455Y0075215D01*
X0075510Y0075238D01*
X0075565Y0075265D01*
X0075617Y0075294D01*
X0075668Y0075327D01*
X0075717Y0075363D01*
X0075763Y0075401D01*
X0075807Y0075443D01*
X0075849Y0075487D01*
X0075887Y0075533D01*
X0075923Y0075582D01*
X0075956Y0075633D01*
X0075985Y0075685D01*
X0076012Y0075740D01*
X0076035Y0075795D01*
X0076055Y0075852D01*
X0076071Y0075911D01*
X0076084Y0075970D01*
X0076093Y0076029D01*
X0076098Y0076090D01*
X0076100Y0076150D01*
X0071360Y0077650D02*
X0069860Y0077650D01*
X0067550Y0079650D02*
X0067550Y0075150D01*
X0065050Y0079650D01*
X0065050Y0075150D01*
D13*
X0116300Y0048800D02*
X0121300Y0048800D01*
X0136300Y0048800D02*
X0141300Y0048800D01*
X0138800Y0046300D02*
X0138800Y0051300D01*
D14*
X0131767Y0050900D02*
X0130367Y0046700D01*
X0128967Y0050900D01*
X0127033Y0049733D02*
X0127033Y0048567D01*
X0125633Y0048567D01*
X0127034Y0048567D02*
X0127032Y0048483D01*
X0127026Y0048400D01*
X0127017Y0048316D01*
X0127004Y0048234D01*
X0126987Y0048152D01*
X0126967Y0048070D01*
X0126943Y0047990D01*
X0126915Y0047911D01*
X0126884Y0047833D01*
X0126849Y0047757D01*
X0126811Y0047682D01*
X0126770Y0047609D01*
X0126725Y0047538D01*
X0126677Y0047470D01*
X0126627Y0047403D01*
X0126573Y0047339D01*
X0126516Y0047277D01*
X0126457Y0047218D01*
X0126395Y0047161D01*
X0126331Y0047107D01*
X0126264Y0047057D01*
X0126196Y0047009D01*
X0126125Y0046964D01*
X0126052Y0046923D01*
X0125977Y0046885D01*
X0125901Y0046850D01*
X0125823Y0046819D01*
X0125744Y0046791D01*
X0125664Y0046767D01*
X0125582Y0046747D01*
X0125500Y0046730D01*
X0125418Y0046717D01*
X0125334Y0046708D01*
X0125251Y0046702D01*
X0125167Y0046700D01*
X0125633Y0048567D02*
X0125574Y0048569D01*
X0125516Y0048574D01*
X0125458Y0048584D01*
X0125401Y0048596D01*
X0125345Y0048613D01*
X0125290Y0048633D01*
X0125236Y0048656D01*
X0125184Y0048682D01*
X0125133Y0048712D01*
X0125085Y0048745D01*
X0125038Y0048781D01*
X0124994Y0048820D01*
X0124953Y0048861D01*
X0124914Y0048905D01*
X0124878Y0048952D01*
X0124845Y0049000D01*
X0124815Y0049051D01*
X0124789Y0049103D01*
X0124766Y0049157D01*
X0124746Y0049212D01*
X0124729Y0049268D01*
X0124717Y0049325D01*
X0124707Y0049383D01*
X0124702Y0049441D01*
X0124700Y0049500D01*
X0124700Y0049733D01*
X0124702Y0049800D01*
X0124708Y0049866D01*
X0124717Y0049932D01*
X0124730Y0049997D01*
X0124747Y0050062D01*
X0124768Y0050125D01*
X0124792Y0050187D01*
X0124820Y0050248D01*
X0124851Y0050307D01*
X0124885Y0050364D01*
X0124923Y0050419D01*
X0124964Y0050472D01*
X0125007Y0050522D01*
X0125054Y0050570D01*
X0125103Y0050615D01*
X0125154Y0050657D01*
X0125208Y0050696D01*
X0125264Y0050732D01*
X0125322Y0050765D01*
X0125382Y0050795D01*
X0125444Y0050820D01*
X0125506Y0050843D01*
X0125570Y0050862D01*
X0125635Y0050877D01*
X0125701Y0050888D01*
X0125767Y0050896D01*
X0125834Y0050900D01*
X0125900Y0050900D01*
X0125967Y0050896D01*
X0126033Y0050888D01*
X0126099Y0050877D01*
X0126164Y0050862D01*
X0126228Y0050843D01*
X0126290Y0050820D01*
X0126352Y0050795D01*
X0126412Y0050765D01*
X0126470Y0050732D01*
X0126526Y0050696D01*
X0126580Y0050657D01*
X0126631Y0050615D01*
X0126680Y0050570D01*
X0126727Y0050522D01*
X0126770Y0050472D01*
X0126811Y0050419D01*
X0126849Y0050364D01*
X0126883Y0050307D01*
X0126914Y0050248D01*
X0126942Y0050187D01*
X0126966Y0050125D01*
X0126987Y0050062D01*
X0127004Y0049997D01*
X0127017Y0049932D01*
X0127026Y0049866D01*
X0127032Y0049800D01*
X0127034Y0049733D01*
X0191831Y0055178D02*
X0195769Y0055178D01*
X0195769Y0057146D01*
X0191831Y0057146D02*
X0191831Y0055178D01*
X0171950Y0078800D02*
X0171957Y0079336D01*
X0171976Y0079872D01*
X0172009Y0080407D01*
X0172055Y0080942D01*
X0172114Y0081475D01*
X0172186Y0082006D01*
X0172272Y0082536D01*
X0172370Y0083063D01*
X0172481Y0083587D01*
X0172605Y0084109D01*
X0172741Y0084628D01*
X0172891Y0085143D01*
X0173053Y0085654D01*
X0173227Y0086161D01*
X0173414Y0086664D01*
X0173613Y0087162D01*
X0173825Y0087655D01*
X0174048Y0088142D01*
X0174283Y0088624D01*
X0174530Y0089100D01*
X0174789Y0089570D01*
X0175059Y0090033D01*
X0175340Y0090490D01*
X0175632Y0090939D01*
X0175936Y0091381D01*
X0176250Y0091816D01*
X0176575Y0092243D01*
X0176910Y0092661D01*
X0177255Y0093072D01*
X0177610Y0093474D01*
X0177975Y0093866D01*
X0178350Y0094250D01*
X0178734Y0094625D01*
X0179126Y0094990D01*
X0179528Y0095345D01*
X0179939Y0095690D01*
X0180357Y0096025D01*
X0180784Y0096350D01*
X0181219Y0096664D01*
X0181661Y0096968D01*
X0182110Y0097260D01*
X0182567Y0097541D01*
X0183030Y0097811D01*
X0183500Y0098070D01*
X0183976Y0098317D01*
X0184458Y0098552D01*
X0184945Y0098775D01*
X0185438Y0098987D01*
X0185936Y0099186D01*
X0186439Y0099373D01*
X0186946Y0099547D01*
X0187457Y0099709D01*
X0187972Y0099859D01*
X0188491Y0099995D01*
X0189013Y0100119D01*
X0189537Y0100230D01*
X0190064Y0100328D01*
X0190594Y0100414D01*
X0191125Y0100486D01*
X0191658Y0100545D01*
X0192193Y0100591D01*
X0192728Y0100624D01*
X0193264Y0100643D01*
X0193800Y0100650D01*
X0194336Y0100643D01*
X0194872Y0100624D01*
X0195407Y0100591D01*
X0195942Y0100545D01*
X0196475Y0100486D01*
X0197006Y0100414D01*
X0197536Y0100328D01*
X0198063Y0100230D01*
X0198587Y0100119D01*
X0199109Y0099995D01*
X0199628Y0099859D01*
X0200143Y0099709D01*
X0200654Y0099547D01*
X0201161Y0099373D01*
X0201664Y0099186D01*
X0202162Y0098987D01*
X0202655Y0098775D01*
X0203142Y0098552D01*
X0203624Y0098317D01*
X0204100Y0098070D01*
X0204570Y0097811D01*
X0205033Y0097541D01*
X0205490Y0097260D01*
X0205939Y0096968D01*
X0206381Y0096664D01*
X0206816Y0096350D01*
X0207243Y0096025D01*
X0207661Y0095690D01*
X0208072Y0095345D01*
X0208474Y0094990D01*
X0208866Y0094625D01*
X0209250Y0094250D01*
X0209625Y0093866D01*
X0209990Y0093474D01*
X0210345Y0093072D01*
X0210690Y0092661D01*
X0211025Y0092243D01*
X0211350Y0091816D01*
X0211664Y0091381D01*
X0211968Y0090939D01*
X0212260Y0090490D01*
X0212541Y0090033D01*
X0212811Y0089570D01*
X0213070Y0089100D01*
X0213317Y0088624D01*
X0213552Y0088142D01*
X0213775Y0087655D01*
X0213987Y0087162D01*
X0214186Y0086664D01*
X0214373Y0086161D01*
X0214547Y0085654D01*
X0214709Y0085143D01*
X0214859Y0084628D01*
X0214995Y0084109D01*
X0215119Y0083587D01*
X0215230Y0083063D01*
X0215328Y0082536D01*
X0215414Y0082006D01*
X0215486Y0081475D01*
X0215545Y0080942D01*
X0215591Y0080407D01*
X0215624Y0079872D01*
X0215643Y0079336D01*
X0215650Y0078800D01*
X0215643Y0078264D01*
X0215624Y0077728D01*
X0215591Y0077193D01*
X0215545Y0076658D01*
X0215486Y0076125D01*
X0215414Y0075594D01*
X0215328Y0075064D01*
X0215230Y0074537D01*
X0215119Y0074013D01*
X0214995Y0073491D01*
X0214859Y0072972D01*
X0214709Y0072457D01*
X0214547Y0071946D01*
X0214373Y0071439D01*
X0214186Y0070936D01*
X0213987Y0070438D01*
X0213775Y0069945D01*
X0213552Y0069458D01*
X0213317Y0068976D01*
X0213070Y0068500D01*
X0212811Y0068030D01*
X0212541Y0067567D01*
X0212260Y0067110D01*
X0211968Y0066661D01*
X0211664Y0066219D01*
X0211350Y0065784D01*
X0211025Y0065357D01*
X0210690Y0064939D01*
X0210345Y0064528D01*
X0209990Y0064126D01*
X0209625Y0063734D01*
X0209250Y0063350D01*
X0208866Y0062975D01*
X0208474Y0062610D01*
X0208072Y0062255D01*
X0207661Y0061910D01*
X0207243Y0061575D01*
X0206816Y0061250D01*
X0206381Y0060936D01*
X0205939Y0060632D01*
X0205490Y0060340D01*
X0205033Y0060059D01*
X0204570Y0059789D01*
X0204100Y0059530D01*
X0203624Y0059283D01*
X0203142Y0059048D01*
X0202655Y0058825D01*
X0202162Y0058613D01*
X0201664Y0058414D01*
X0201161Y0058227D01*
X0200654Y0058053D01*
X0200143Y0057891D01*
X0199628Y0057741D01*
X0199109Y0057605D01*
X0198587Y0057481D01*
X0198063Y0057370D01*
X0197536Y0057272D01*
X0197006Y0057186D01*
X0196475Y0057114D01*
X0195942Y0057055D01*
X0195407Y0057009D01*
X0194872Y0056976D01*
X0194336Y0056957D01*
X0193800Y0056950D01*
X0193264Y0056957D01*
X0192728Y0056976D01*
X0192193Y0057009D01*
X0191658Y0057055D01*
X0191125Y0057114D01*
X0190594Y0057186D01*
X0190064Y0057272D01*
X0189537Y0057370D01*
X0189013Y0057481D01*
X0188491Y0057605D01*
X0187972Y0057741D01*
X0187457Y0057891D01*
X0186946Y0058053D01*
X0186439Y0058227D01*
X0185936Y0058414D01*
X0185438Y0058613D01*
X0184945Y0058825D01*
X0184458Y0059048D01*
X0183976Y0059283D01*
X0183500Y0059530D01*
X0183030Y0059789D01*
X0182567Y0060059D01*
X0182110Y0060340D01*
X0181661Y0060632D01*
X0181219Y0060936D01*
X0180784Y0061250D01*
X0180357Y0061575D01*
X0179939Y0061910D01*
X0179528Y0062255D01*
X0179126Y0062610D01*
X0178734Y0062975D01*
X0178350Y0063350D01*
X0177975Y0063734D01*
X0177610Y0064126D01*
X0177255Y0064528D01*
X0176910Y0064939D01*
X0176575Y0065357D01*
X0176250Y0065784D01*
X0175936Y0066219D01*
X0175632Y0066661D01*
X0175340Y0067110D01*
X0175059Y0067567D01*
X0174789Y0068030D01*
X0174530Y0068500D01*
X0174283Y0068976D01*
X0174048Y0069458D01*
X0173825Y0069945D01*
X0173613Y0070438D01*
X0173414Y0070936D01*
X0173227Y0071439D01*
X0173053Y0071946D01*
X0172891Y0072457D01*
X0172741Y0072972D01*
X0172605Y0073491D01*
X0172481Y0074013D01*
X0172370Y0074537D01*
X0172272Y0075064D01*
X0172186Y0075594D01*
X0172114Y0076125D01*
X0172055Y0076658D01*
X0172009Y0077193D01*
X0171976Y0077728D01*
X0171957Y0078264D01*
X0171950Y0078800D01*
D15*
X0185000Y0158000D02*
X0185000Y0162600D01*
X0186278Y0162600D01*
X0186348Y0162598D01*
X0186419Y0162592D01*
X0186488Y0162583D01*
X0186557Y0162569D01*
X0186626Y0162552D01*
X0186693Y0162531D01*
X0186759Y0162506D01*
X0186823Y0162478D01*
X0186886Y0162446D01*
X0186947Y0162411D01*
X0187006Y0162372D01*
X0187063Y0162331D01*
X0187117Y0162286D01*
X0187169Y0162238D01*
X0187218Y0162188D01*
X0187265Y0162134D01*
X0187308Y0162079D01*
X0187348Y0162021D01*
X0187385Y0161961D01*
X0187418Y0161899D01*
X0187448Y0161835D01*
X0187475Y0161770D01*
X0187498Y0161704D01*
X0187517Y0161636D01*
X0187532Y0161567D01*
X0187544Y0161498D01*
X0187552Y0161428D01*
X0187556Y0161357D01*
X0187556Y0161287D01*
X0187552Y0161216D01*
X0187544Y0161146D01*
X0187532Y0161077D01*
X0187517Y0161008D01*
X0187498Y0160940D01*
X0187475Y0160874D01*
X0187448Y0160809D01*
X0187418Y0160745D01*
X0187385Y0160683D01*
X0187348Y0160623D01*
X0187308Y0160565D01*
X0187265Y0160510D01*
X0187218Y0160456D01*
X0187169Y0160406D01*
X0187117Y0160358D01*
X0187063Y0160313D01*
X0187006Y0160272D01*
X0186947Y0160233D01*
X0186886Y0160198D01*
X0186823Y0160166D01*
X0186759Y0160138D01*
X0186693Y0160113D01*
X0186626Y0160092D01*
X0186557Y0160075D01*
X0186488Y0160061D01*
X0186419Y0160052D01*
X0186348Y0160046D01*
X0186278Y0160044D01*
X0185000Y0160044D01*
X0186533Y0160044D02*
X0187556Y0158000D01*
X0189471Y0158000D02*
X0192027Y0158000D01*
X0189471Y0158000D02*
X0191643Y0160556D01*
X0190877Y0162600D02*
X0190803Y0162598D01*
X0190729Y0162593D01*
X0190655Y0162583D01*
X0190582Y0162570D01*
X0190509Y0162554D01*
X0190438Y0162533D01*
X0190368Y0162509D01*
X0190299Y0162482D01*
X0190231Y0162451D01*
X0190165Y0162417D01*
X0190101Y0162380D01*
X0190039Y0162339D01*
X0189979Y0162295D01*
X0189921Y0162249D01*
X0189865Y0162199D01*
X0189812Y0162147D01*
X0189762Y0162092D01*
X0189715Y0162035D01*
X0189671Y0161975D01*
X0189629Y0161913D01*
X0189591Y0161850D01*
X0189556Y0161784D01*
X0189525Y0161717D01*
X0189497Y0161648D01*
X0189472Y0161578D01*
X0191643Y0160556D02*
X0191690Y0160603D01*
X0191734Y0160653D01*
X0191776Y0160705D01*
X0191815Y0160759D01*
X0191850Y0160815D01*
X0191883Y0160873D01*
X0191913Y0160933D01*
X0191939Y0160994D01*
X0191962Y0161057D01*
X0191981Y0161121D01*
X0191997Y0161185D01*
X0192010Y0161251D01*
X0192019Y0161317D01*
X0192024Y0161383D01*
X0192026Y0161450D01*
X0192027Y0161450D02*
X0192025Y0161517D01*
X0192019Y0161584D01*
X0192010Y0161650D01*
X0191996Y0161715D01*
X0191979Y0161780D01*
X0191958Y0161843D01*
X0191933Y0161905D01*
X0191905Y0161966D01*
X0191873Y0162025D01*
X0191838Y0162082D01*
X0191799Y0162137D01*
X0191758Y0162189D01*
X0191713Y0162239D01*
X0191666Y0162286D01*
X0191616Y0162331D01*
X0191564Y0162372D01*
X0191509Y0162411D01*
X0191452Y0162446D01*
X0191393Y0162478D01*
X0191332Y0162506D01*
X0191270Y0162531D01*
X0191207Y0162552D01*
X0191142Y0162569D01*
X0191077Y0162583D01*
X0191011Y0162592D01*
X0190944Y0162598D01*
X0190877Y0162600D01*
X0215000Y0162600D02*
X0215000Y0158000D01*
X0215000Y0160044D02*
X0216278Y0160044D01*
X0216533Y0160044D02*
X0217556Y0158000D01*
X0219471Y0158000D02*
X0222027Y0158000D01*
X0220749Y0158000D02*
X0220749Y0162600D01*
X0219471Y0161578D01*
X0216278Y0162600D02*
X0216348Y0162598D01*
X0216419Y0162592D01*
X0216488Y0162583D01*
X0216557Y0162569D01*
X0216626Y0162552D01*
X0216693Y0162531D01*
X0216759Y0162506D01*
X0216823Y0162478D01*
X0216886Y0162446D01*
X0216947Y0162411D01*
X0217006Y0162372D01*
X0217063Y0162331D01*
X0217117Y0162286D01*
X0217169Y0162238D01*
X0217218Y0162188D01*
X0217265Y0162134D01*
X0217308Y0162079D01*
X0217348Y0162021D01*
X0217385Y0161961D01*
X0217418Y0161899D01*
X0217448Y0161835D01*
X0217475Y0161770D01*
X0217498Y0161704D01*
X0217517Y0161636D01*
X0217532Y0161567D01*
X0217544Y0161498D01*
X0217552Y0161428D01*
X0217556Y0161357D01*
X0217556Y0161287D01*
X0217552Y0161216D01*
X0217544Y0161146D01*
X0217532Y0161077D01*
X0217517Y0161008D01*
X0217498Y0160940D01*
X0217475Y0160874D01*
X0217448Y0160809D01*
X0217418Y0160745D01*
X0217385Y0160683D01*
X0217348Y0160623D01*
X0217308Y0160565D01*
X0217265Y0160510D01*
X0217218Y0160456D01*
X0217169Y0160406D01*
X0217117Y0160358D01*
X0217063Y0160313D01*
X0217006Y0160272D01*
X0216947Y0160233D01*
X0216886Y0160198D01*
X0216823Y0160166D01*
X0216759Y0160138D01*
X0216693Y0160113D01*
X0216626Y0160092D01*
X0216557Y0160075D01*
X0216488Y0160061D01*
X0216419Y0160052D01*
X0216348Y0160046D01*
X0216278Y0160044D01*
X0216278Y0162600D02*
X0215000Y0162600D01*
X0151004Y0162600D02*
X0149471Y0162600D01*
X0151004Y0162600D02*
X0151067Y0162598D01*
X0151130Y0162592D01*
X0151192Y0162583D01*
X0151253Y0162569D01*
X0151314Y0162552D01*
X0151373Y0162531D01*
X0151431Y0162506D01*
X0151488Y0162478D01*
X0151542Y0162447D01*
X0151594Y0162412D01*
X0151645Y0162374D01*
X0151693Y0162333D01*
X0151738Y0162289D01*
X0151780Y0162243D01*
X0151820Y0162194D01*
X0151856Y0162143D01*
X0151889Y0162089D01*
X0151919Y0162034D01*
X0151945Y0161976D01*
X0151968Y0161918D01*
X0151987Y0161858D01*
X0152002Y0161797D01*
X0152014Y0161735D01*
X0152022Y0161672D01*
X0152026Y0161609D01*
X0152026Y0161547D01*
X0152022Y0161484D01*
X0152014Y0161421D01*
X0152002Y0161359D01*
X0151987Y0161298D01*
X0151968Y0161238D01*
X0151945Y0161180D01*
X0151919Y0161122D01*
X0151889Y0161067D01*
X0151856Y0161013D01*
X0151820Y0160962D01*
X0151780Y0160913D01*
X0151738Y0160867D01*
X0151693Y0160823D01*
X0151645Y0160782D01*
X0151594Y0160744D01*
X0151542Y0160709D01*
X0151488Y0160678D01*
X0151431Y0160650D01*
X0151373Y0160625D01*
X0151314Y0160604D01*
X0151253Y0160587D01*
X0151192Y0160573D01*
X0151130Y0160564D01*
X0151067Y0160558D01*
X0151004Y0160556D01*
X0149982Y0160556D01*
X0150749Y0160556D02*
X0150819Y0160554D01*
X0150890Y0160548D01*
X0150959Y0160539D01*
X0151028Y0160525D01*
X0151097Y0160508D01*
X0151164Y0160487D01*
X0151230Y0160462D01*
X0151294Y0160434D01*
X0151357Y0160402D01*
X0151418Y0160367D01*
X0151477Y0160328D01*
X0151534Y0160287D01*
X0151588Y0160242D01*
X0151640Y0160194D01*
X0151689Y0160144D01*
X0151736Y0160090D01*
X0151779Y0160035D01*
X0151819Y0159977D01*
X0151856Y0159917D01*
X0151889Y0159855D01*
X0151919Y0159791D01*
X0151946Y0159726D01*
X0151969Y0159660D01*
X0151988Y0159592D01*
X0152003Y0159523D01*
X0152015Y0159454D01*
X0152023Y0159384D01*
X0152027Y0159313D01*
X0152027Y0159243D01*
X0152023Y0159172D01*
X0152015Y0159102D01*
X0152003Y0159033D01*
X0151988Y0158964D01*
X0151969Y0158896D01*
X0151946Y0158830D01*
X0151919Y0158765D01*
X0151889Y0158701D01*
X0151856Y0158639D01*
X0151819Y0158579D01*
X0151779Y0158521D01*
X0151736Y0158466D01*
X0151689Y0158412D01*
X0151640Y0158362D01*
X0151588Y0158314D01*
X0151534Y0158269D01*
X0151477Y0158228D01*
X0151418Y0158189D01*
X0151357Y0158154D01*
X0151294Y0158122D01*
X0151230Y0158094D01*
X0151164Y0158069D01*
X0151097Y0158048D01*
X0151028Y0158031D01*
X0150959Y0158017D01*
X0150890Y0158008D01*
X0150819Y0158002D01*
X0150749Y0158000D01*
X0149471Y0158000D01*
X0147556Y0158000D02*
X0146533Y0160044D01*
X0146278Y0160044D02*
X0145000Y0160044D01*
X0146278Y0160044D02*
X0146348Y0160046D01*
X0146419Y0160052D01*
X0146488Y0160061D01*
X0146557Y0160075D01*
X0146626Y0160092D01*
X0146693Y0160113D01*
X0146759Y0160138D01*
X0146823Y0160166D01*
X0146886Y0160198D01*
X0146947Y0160233D01*
X0147006Y0160272D01*
X0147063Y0160313D01*
X0147117Y0160358D01*
X0147169Y0160406D01*
X0147218Y0160456D01*
X0147265Y0160510D01*
X0147308Y0160565D01*
X0147348Y0160623D01*
X0147385Y0160683D01*
X0147418Y0160745D01*
X0147448Y0160809D01*
X0147475Y0160874D01*
X0147498Y0160940D01*
X0147517Y0161008D01*
X0147532Y0161077D01*
X0147544Y0161146D01*
X0147552Y0161216D01*
X0147556Y0161287D01*
X0147556Y0161357D01*
X0147552Y0161428D01*
X0147544Y0161498D01*
X0147532Y0161567D01*
X0147517Y0161636D01*
X0147498Y0161704D01*
X0147475Y0161770D01*
X0147448Y0161835D01*
X0147418Y0161899D01*
X0147385Y0161961D01*
X0147348Y0162021D01*
X0147308Y0162079D01*
X0147265Y0162134D01*
X0147218Y0162188D01*
X0147169Y0162238D01*
X0147117Y0162286D01*
X0147063Y0162331D01*
X0147006Y0162372D01*
X0146947Y0162411D01*
X0146886Y0162446D01*
X0146823Y0162478D01*
X0146759Y0162506D01*
X0146693Y0162531D01*
X0146626Y0162552D01*
X0146557Y0162569D01*
X0146488Y0162583D01*
X0146419Y0162592D01*
X0146348Y0162598D01*
X0146278Y0162600D01*
X0145000Y0162600D01*
X0145000Y0158000D01*
X0122027Y0159022D02*
X0119471Y0159022D01*
X0120493Y0162600D01*
X0121260Y0160044D02*
X0121260Y0158000D01*
X0117556Y0158000D02*
X0116533Y0160044D01*
X0116278Y0160044D02*
X0115000Y0160044D01*
X0116278Y0160044D02*
X0116348Y0160046D01*
X0116419Y0160052D01*
X0116488Y0160061D01*
X0116557Y0160075D01*
X0116626Y0160092D01*
X0116693Y0160113D01*
X0116759Y0160138D01*
X0116823Y0160166D01*
X0116886Y0160198D01*
X0116947Y0160233D01*
X0117006Y0160272D01*
X0117063Y0160313D01*
X0117117Y0160358D01*
X0117169Y0160406D01*
X0117218Y0160456D01*
X0117265Y0160510D01*
X0117308Y0160565D01*
X0117348Y0160623D01*
X0117385Y0160683D01*
X0117418Y0160745D01*
X0117448Y0160809D01*
X0117475Y0160874D01*
X0117498Y0160940D01*
X0117517Y0161008D01*
X0117532Y0161077D01*
X0117544Y0161146D01*
X0117552Y0161216D01*
X0117556Y0161287D01*
X0117556Y0161357D01*
X0117552Y0161428D01*
X0117544Y0161498D01*
X0117532Y0161567D01*
X0117517Y0161636D01*
X0117498Y0161704D01*
X0117475Y0161770D01*
X0117448Y0161835D01*
X0117418Y0161899D01*
X0117385Y0161961D01*
X0117348Y0162021D01*
X0117308Y0162079D01*
X0117265Y0162134D01*
X0117218Y0162188D01*
X0117169Y0162238D01*
X0117117Y0162286D01*
X0117063Y0162331D01*
X0117006Y0162372D01*
X0116947Y0162411D01*
X0116886Y0162446D01*
X0116823Y0162478D01*
X0116759Y0162506D01*
X0116693Y0162531D01*
X0116626Y0162552D01*
X0116557Y0162569D01*
X0116488Y0162583D01*
X0116419Y0162592D01*
X0116348Y0162598D01*
X0116278Y0162600D01*
X0115000Y0162600D01*
X0115000Y0158000D01*
X0082027Y0159278D02*
X0082027Y0159533D01*
X0082026Y0159533D02*
X0082024Y0159595D01*
X0082019Y0159656D01*
X0082009Y0159717D01*
X0081996Y0159778D01*
X0081980Y0159837D01*
X0081960Y0159895D01*
X0081936Y0159952D01*
X0081909Y0160008D01*
X0081879Y0160062D01*
X0081845Y0160114D01*
X0081809Y0160163D01*
X0081769Y0160211D01*
X0081727Y0160256D01*
X0081682Y0160298D01*
X0081634Y0160338D01*
X0081585Y0160374D01*
X0081533Y0160408D01*
X0081479Y0160438D01*
X0081423Y0160465D01*
X0081366Y0160489D01*
X0081308Y0160509D01*
X0081249Y0160525D01*
X0081188Y0160538D01*
X0081127Y0160548D01*
X0081066Y0160553D01*
X0081004Y0160555D01*
X0081004Y0160556D02*
X0079471Y0160556D01*
X0079471Y0159278D01*
X0079473Y0159208D01*
X0079479Y0159137D01*
X0079488Y0159068D01*
X0079502Y0158999D01*
X0079519Y0158930D01*
X0079540Y0158863D01*
X0079565Y0158797D01*
X0079593Y0158733D01*
X0079625Y0158670D01*
X0079660Y0158609D01*
X0079699Y0158550D01*
X0079740Y0158493D01*
X0079785Y0158439D01*
X0079833Y0158387D01*
X0079883Y0158338D01*
X0079937Y0158291D01*
X0079992Y0158248D01*
X0080050Y0158208D01*
X0080110Y0158171D01*
X0080172Y0158138D01*
X0080236Y0158108D01*
X0080301Y0158081D01*
X0080367Y0158058D01*
X0080435Y0158039D01*
X0080504Y0158024D01*
X0080573Y0158012D01*
X0080643Y0158004D01*
X0080714Y0158000D01*
X0080784Y0158000D01*
X0080855Y0158004D01*
X0080925Y0158012D01*
X0080994Y0158024D01*
X0081063Y0158039D01*
X0081131Y0158058D01*
X0081197Y0158081D01*
X0081262Y0158108D01*
X0081326Y0158138D01*
X0081388Y0158171D01*
X0081448Y0158208D01*
X0081506Y0158248D01*
X0081561Y0158291D01*
X0081615Y0158338D01*
X0081665Y0158387D01*
X0081713Y0158439D01*
X0081758Y0158493D01*
X0081799Y0158550D01*
X0081838Y0158609D01*
X0081873Y0158670D01*
X0081905Y0158733D01*
X0081933Y0158797D01*
X0081958Y0158863D01*
X0081979Y0158930D01*
X0081996Y0158999D01*
X0082010Y0159068D01*
X0082019Y0159137D01*
X0082025Y0159208D01*
X0082027Y0159278D01*
X0079471Y0160556D02*
X0079473Y0160645D01*
X0079479Y0160734D01*
X0079488Y0160823D01*
X0079502Y0160911D01*
X0079519Y0160998D01*
X0079541Y0161085D01*
X0079566Y0161171D01*
X0079594Y0161255D01*
X0079627Y0161338D01*
X0079663Y0161420D01*
X0079702Y0161500D01*
X0079745Y0161578D01*
X0079791Y0161654D01*
X0079841Y0161728D01*
X0079893Y0161800D01*
X0079949Y0161870D01*
X0080008Y0161937D01*
X0080070Y0162001D01*
X0080134Y0162063D01*
X0080201Y0162122D01*
X0080271Y0162178D01*
X0080343Y0162230D01*
X0080417Y0162280D01*
X0080493Y0162326D01*
X0080571Y0162369D01*
X0080651Y0162408D01*
X0080733Y0162444D01*
X0080816Y0162477D01*
X0080900Y0162505D01*
X0080986Y0162530D01*
X0081073Y0162552D01*
X0081160Y0162569D01*
X0081248Y0162583D01*
X0081337Y0162592D01*
X0081426Y0162598D01*
X0081515Y0162600D01*
X0076278Y0162600D02*
X0075000Y0162600D01*
X0075000Y0158000D01*
X0075000Y0160044D02*
X0076278Y0160044D01*
X0076533Y0160044D02*
X0077556Y0158000D01*
X0076278Y0160044D02*
X0076348Y0160046D01*
X0076419Y0160052D01*
X0076488Y0160061D01*
X0076557Y0160075D01*
X0076626Y0160092D01*
X0076693Y0160113D01*
X0076759Y0160138D01*
X0076823Y0160166D01*
X0076886Y0160198D01*
X0076947Y0160233D01*
X0077006Y0160272D01*
X0077063Y0160313D01*
X0077117Y0160358D01*
X0077169Y0160406D01*
X0077218Y0160456D01*
X0077265Y0160510D01*
X0077308Y0160565D01*
X0077348Y0160623D01*
X0077385Y0160683D01*
X0077418Y0160745D01*
X0077448Y0160809D01*
X0077475Y0160874D01*
X0077498Y0160940D01*
X0077517Y0161008D01*
X0077532Y0161077D01*
X0077544Y0161146D01*
X0077552Y0161216D01*
X0077556Y0161287D01*
X0077556Y0161357D01*
X0077552Y0161428D01*
X0077544Y0161498D01*
X0077532Y0161567D01*
X0077517Y0161636D01*
X0077498Y0161704D01*
X0077475Y0161770D01*
X0077448Y0161835D01*
X0077418Y0161899D01*
X0077385Y0161961D01*
X0077348Y0162021D01*
X0077308Y0162079D01*
X0077265Y0162134D01*
X0077218Y0162188D01*
X0077169Y0162238D01*
X0077117Y0162286D01*
X0077063Y0162331D01*
X0077006Y0162372D01*
X0076947Y0162411D01*
X0076886Y0162446D01*
X0076823Y0162478D01*
X0076759Y0162506D01*
X0076693Y0162531D01*
X0076626Y0162552D01*
X0076557Y0162569D01*
X0076488Y0162583D01*
X0076419Y0162592D01*
X0076348Y0162598D01*
X0076278Y0162600D01*
X0047027Y0162600D02*
X0045749Y0158000D01*
X0042556Y0158000D02*
X0041533Y0160044D01*
X0041278Y0160044D02*
X0040000Y0160044D01*
X0041278Y0160044D02*
X0041348Y0160046D01*
X0041419Y0160052D01*
X0041488Y0160061D01*
X0041557Y0160075D01*
X0041626Y0160092D01*
X0041693Y0160113D01*
X0041759Y0160138D01*
X0041823Y0160166D01*
X0041886Y0160198D01*
X0041947Y0160233D01*
X0042006Y0160272D01*
X0042063Y0160313D01*
X0042117Y0160358D01*
X0042169Y0160406D01*
X0042218Y0160456D01*
X0042265Y0160510D01*
X0042308Y0160565D01*
X0042348Y0160623D01*
X0042385Y0160683D01*
X0042418Y0160745D01*
X0042448Y0160809D01*
X0042475Y0160874D01*
X0042498Y0160940D01*
X0042517Y0161008D01*
X0042532Y0161077D01*
X0042544Y0161146D01*
X0042552Y0161216D01*
X0042556Y0161287D01*
X0042556Y0161357D01*
X0042552Y0161428D01*
X0042544Y0161498D01*
X0042532Y0161567D01*
X0042517Y0161636D01*
X0042498Y0161704D01*
X0042475Y0161770D01*
X0042448Y0161835D01*
X0042418Y0161899D01*
X0042385Y0161961D01*
X0042348Y0162021D01*
X0042308Y0162079D01*
X0042265Y0162134D01*
X0042218Y0162188D01*
X0042169Y0162238D01*
X0042117Y0162286D01*
X0042063Y0162331D01*
X0042006Y0162372D01*
X0041947Y0162411D01*
X0041886Y0162446D01*
X0041823Y0162478D01*
X0041759Y0162506D01*
X0041693Y0162531D01*
X0041626Y0162552D01*
X0041557Y0162569D01*
X0041488Y0162583D01*
X0041419Y0162592D01*
X0041348Y0162598D01*
X0041278Y0162600D01*
X0040000Y0162600D01*
X0040000Y0158000D01*
X0044471Y0162089D02*
X0044471Y0162600D01*
X0047027Y0162600D01*
X0031100Y0135496D02*
X0031100Y0132940D01*
X0031100Y0134218D02*
X0026500Y0134218D01*
X0027522Y0132940D01*
X0026500Y0129747D02*
X0026502Y0129817D01*
X0026508Y0129888D01*
X0026517Y0129957D01*
X0026531Y0130026D01*
X0026548Y0130095D01*
X0026569Y0130162D01*
X0026594Y0130228D01*
X0026622Y0130292D01*
X0026654Y0130355D01*
X0026689Y0130416D01*
X0026728Y0130475D01*
X0026769Y0130532D01*
X0026814Y0130586D01*
X0026862Y0130638D01*
X0026912Y0130687D01*
X0026966Y0130734D01*
X0027021Y0130777D01*
X0027079Y0130817D01*
X0027139Y0130854D01*
X0027201Y0130887D01*
X0027265Y0130917D01*
X0027330Y0130944D01*
X0027396Y0130967D01*
X0027464Y0130986D01*
X0027533Y0131001D01*
X0027602Y0131013D01*
X0027672Y0131021D01*
X0027743Y0131025D01*
X0027813Y0131025D01*
X0027884Y0131021D01*
X0027954Y0131013D01*
X0028023Y0131001D01*
X0028092Y0130986D01*
X0028160Y0130967D01*
X0028226Y0130944D01*
X0028291Y0130917D01*
X0028355Y0130887D01*
X0028417Y0130854D01*
X0028477Y0130817D01*
X0028535Y0130777D01*
X0028590Y0130734D01*
X0028644Y0130687D01*
X0028694Y0130638D01*
X0028742Y0130586D01*
X0028787Y0130532D01*
X0028828Y0130475D01*
X0028867Y0130416D01*
X0028902Y0130355D01*
X0028934Y0130292D01*
X0028962Y0130228D01*
X0028987Y0130162D01*
X0029008Y0130095D01*
X0029025Y0130026D01*
X0029039Y0129957D01*
X0029048Y0129888D01*
X0029054Y0129817D01*
X0029056Y0129747D01*
X0029056Y0128469D01*
X0029056Y0130002D02*
X0031100Y0131025D01*
X0031100Y0128469D02*
X0026500Y0128469D01*
X0026500Y0129747D01*
X0027778Y0126196D02*
X0029822Y0126196D01*
X0029891Y0126194D01*
X0029960Y0126189D01*
X0030029Y0126179D01*
X0030097Y0126166D01*
X0030164Y0126149D01*
X0030230Y0126129D01*
X0030295Y0126105D01*
X0030359Y0126078D01*
X0030421Y0126047D01*
X0030481Y0126013D01*
X0030539Y0125976D01*
X0030595Y0125935D01*
X0030649Y0125892D01*
X0030701Y0125846D01*
X0030750Y0125797D01*
X0030796Y0125745D01*
X0030839Y0125691D01*
X0030880Y0125635D01*
X0030917Y0125577D01*
X0030951Y0125517D01*
X0030982Y0125455D01*
X0031009Y0125391D01*
X0031033Y0125326D01*
X0031053Y0125260D01*
X0031070Y0125193D01*
X0031083Y0125125D01*
X0031093Y0125056D01*
X0031098Y0124987D01*
X0031100Y0124918D01*
X0031100Y0123640D01*
X0026500Y0123640D01*
X0026500Y0124918D01*
X0026502Y0124987D01*
X0026507Y0125056D01*
X0026517Y0125125D01*
X0026530Y0125193D01*
X0026547Y0125260D01*
X0026567Y0125326D01*
X0026591Y0125391D01*
X0026618Y0125455D01*
X0026649Y0125517D01*
X0026683Y0125577D01*
X0026720Y0125635D01*
X0026761Y0125691D01*
X0026804Y0125745D01*
X0026850Y0125797D01*
X0026899Y0125846D01*
X0026951Y0125892D01*
X0027005Y0125935D01*
X0027061Y0125976D01*
X0027119Y0126013D01*
X0027179Y0126047D01*
X0027241Y0126078D01*
X0027305Y0126105D01*
X0027370Y0126129D01*
X0027436Y0126149D01*
X0027503Y0126166D01*
X0027571Y0126179D01*
X0027640Y0126189D01*
X0027709Y0126194D01*
X0027778Y0126196D01*
X0031100Y0121793D02*
X0031100Y0119749D01*
X0026500Y0119749D01*
X0029311Y0117601D02*
X0029311Y0114535D01*
X0031100Y0112546D02*
X0031100Y0109990D01*
X0028544Y0112162D01*
X0026500Y0111396D02*
X0026502Y0111322D01*
X0026507Y0111248D01*
X0026517Y0111174D01*
X0026530Y0111101D01*
X0026546Y0111028D01*
X0026567Y0110957D01*
X0026591Y0110887D01*
X0026618Y0110818D01*
X0026649Y0110750D01*
X0026683Y0110684D01*
X0026720Y0110620D01*
X0026761Y0110558D01*
X0026805Y0110497D01*
X0026851Y0110440D01*
X0026901Y0110384D01*
X0026953Y0110331D01*
X0027008Y0110281D01*
X0027065Y0110234D01*
X0027125Y0110190D01*
X0027187Y0110148D01*
X0027250Y0110110D01*
X0027316Y0110075D01*
X0027383Y0110044D01*
X0027452Y0110016D01*
X0027522Y0109991D01*
X0028544Y0112163D02*
X0028497Y0112210D01*
X0028447Y0112254D01*
X0028395Y0112296D01*
X0028341Y0112335D01*
X0028285Y0112370D01*
X0028227Y0112403D01*
X0028167Y0112433D01*
X0028106Y0112459D01*
X0028043Y0112482D01*
X0027979Y0112501D01*
X0027915Y0112517D01*
X0027849Y0112530D01*
X0027783Y0112539D01*
X0027717Y0112544D01*
X0027650Y0112546D01*
X0027583Y0112544D01*
X0027516Y0112538D01*
X0027450Y0112529D01*
X0027385Y0112515D01*
X0027320Y0112498D01*
X0027257Y0112477D01*
X0027195Y0112452D01*
X0027134Y0112424D01*
X0027075Y0112392D01*
X0027018Y0112357D01*
X0026963Y0112318D01*
X0026911Y0112277D01*
X0026861Y0112232D01*
X0026814Y0112185D01*
X0026769Y0112135D01*
X0026728Y0112083D01*
X0026689Y0112028D01*
X0026654Y0111971D01*
X0026622Y0111912D01*
X0026594Y0111851D01*
X0026569Y0111789D01*
X0026548Y0111726D01*
X0026531Y0111661D01*
X0026517Y0111596D01*
X0026508Y0111530D01*
X0026502Y0111463D01*
X0026500Y0111396D01*
X0028800Y0105490D02*
X0028915Y0105492D01*
X0029029Y0105497D01*
X0029143Y0105506D01*
X0029257Y0105518D01*
X0029371Y0105533D01*
X0029484Y0105552D01*
X0029596Y0105575D01*
X0029708Y0105600D01*
X0029819Y0105630D01*
X0029929Y0105662D01*
X0030038Y0105698D01*
X0030146Y0105737D01*
X0030252Y0105779D01*
X0030357Y0105825D01*
X0030461Y0105873D01*
X0030078Y0105746D02*
X0027522Y0107790D01*
X0027139Y0107663D02*
X0027084Y0107642D01*
X0027031Y0107618D01*
X0026979Y0107591D01*
X0026929Y0107560D01*
X0026881Y0107527D01*
X0026835Y0107490D01*
X0026791Y0107451D01*
X0026750Y0107409D01*
X0026712Y0107365D01*
X0026676Y0107318D01*
X0026644Y0107269D01*
X0026614Y0107218D01*
X0026588Y0107166D01*
X0026565Y0107112D01*
X0026545Y0107057D01*
X0026529Y0107000D01*
X0026516Y0106943D01*
X0026507Y0106885D01*
X0026502Y0106827D01*
X0026500Y0106768D01*
X0026502Y0106709D01*
X0026507Y0106651D01*
X0026516Y0106593D01*
X0026529Y0106536D01*
X0026545Y0106479D01*
X0026565Y0106424D01*
X0026588Y0106370D01*
X0026614Y0106318D01*
X0026644Y0106267D01*
X0026676Y0106218D01*
X0026712Y0106171D01*
X0026750Y0106127D01*
X0026791Y0106085D01*
X0026835Y0106046D01*
X0026881Y0106009D01*
X0026929Y0105976D01*
X0026979Y0105945D01*
X0027031Y0105918D01*
X0027084Y0105894D01*
X0027139Y0105873D01*
X0027139Y0107663D02*
X0027243Y0107711D01*
X0027348Y0107757D01*
X0027454Y0107799D01*
X0027562Y0107838D01*
X0027671Y0107874D01*
X0027781Y0107906D01*
X0027892Y0107936D01*
X0028004Y0107961D01*
X0028116Y0107984D01*
X0028229Y0108003D01*
X0028343Y0108018D01*
X0028457Y0108030D01*
X0028571Y0108039D01*
X0028685Y0108044D01*
X0028800Y0108046D01*
X0028800Y0105490D02*
X0028685Y0105492D01*
X0028571Y0105497D01*
X0028457Y0105506D01*
X0028343Y0105518D01*
X0028229Y0105533D01*
X0028116Y0105552D01*
X0028004Y0105575D01*
X0027892Y0105600D01*
X0027781Y0105630D01*
X0027671Y0105662D01*
X0027562Y0105698D01*
X0027454Y0105737D01*
X0027348Y0105779D01*
X0027243Y0105825D01*
X0027139Y0105873D01*
X0028800Y0108046D02*
X0028915Y0108044D01*
X0029029Y0108039D01*
X0029143Y0108030D01*
X0029257Y0108018D01*
X0029371Y0108003D01*
X0029484Y0107984D01*
X0029596Y0107961D01*
X0029708Y0107936D01*
X0029819Y0107906D01*
X0029929Y0107874D01*
X0030038Y0107838D01*
X0030146Y0107799D01*
X0030252Y0107757D01*
X0030357Y0107711D01*
X0030461Y0107663D01*
X0030516Y0107642D01*
X0030569Y0107618D01*
X0030621Y0107591D01*
X0030671Y0107560D01*
X0030719Y0107527D01*
X0030765Y0107490D01*
X0030809Y0107451D01*
X0030850Y0107409D01*
X0030888Y0107365D01*
X0030924Y0107318D01*
X0030956Y0107269D01*
X0030986Y0107218D01*
X0031012Y0107166D01*
X0031035Y0107112D01*
X0031055Y0107057D01*
X0031071Y0107000D01*
X0031084Y0106943D01*
X0031093Y0106885D01*
X0031098Y0106827D01*
X0031100Y0106768D01*
X0031098Y0106709D01*
X0031093Y0106651D01*
X0031084Y0106593D01*
X0031071Y0106536D01*
X0031055Y0106479D01*
X0031035Y0106424D01*
X0031012Y0106370D01*
X0030986Y0106318D01*
X0030956Y0106267D01*
X0030924Y0106218D01*
X0030888Y0106171D01*
X0030850Y0106127D01*
X0030809Y0106085D01*
X0030765Y0106046D01*
X0030719Y0106009D01*
X0030671Y0105976D01*
X0030621Y0105945D01*
X0030569Y0105918D01*
X0030516Y0105894D01*
X0030461Y0105873D01*
D16*
X0040335Y0110454D02*
X0044863Y0110454D01*
X0040335Y0110454D02*
X0040335Y0130532D01*
X0044863Y0130532D01*
X0052737Y0130532D02*
X0057265Y0130532D01*
X0057265Y0110454D01*
X0052737Y0110454D01*
M02*
