G75*
%MOIN*%
%OFA0B0*%
%FSLAX25Y25*%
%IPPOS*%
%LPD*%
%AMOC8*
5,1,8,0,0,1.08239X$1,22.5*
%
%ADD10OC8,0.05600*%
%ADD11OC8,0.12400*%
%ADD12C,0.05200*%
%ADD13C,0.05906*%
%ADD14C,0.04756*%
%ADD15OC8,0.05200*%
%ADD16C,0.01000*%
%ADD17C,0.02978*%
%ADD18C,0.00600*%
%ADD19OC8,0.03962*%
D10*
X0118800Y0073800D03*
X0118800Y0083800D03*
X0148800Y0083800D03*
X0148800Y0073800D03*
D11*
X0138800Y0038800D03*
X0118800Y0038800D03*
D12*
X0088800Y0059800D02*
X0088800Y0065000D01*
X0078800Y0065000D02*
X0078800Y0059800D01*
X0068800Y0059800D02*
X0068800Y0065000D01*
X0058800Y0065000D02*
X0058800Y0059800D01*
X0058800Y0089800D02*
X0058800Y0095000D01*
X0068800Y0095000D02*
X0068800Y0089800D01*
X0078800Y0089800D02*
X0078800Y0095000D01*
X0088800Y0095000D02*
X0088800Y0089800D01*
D13*
X0186729Y0085871D03*
X0200871Y0085871D03*
X0200871Y0071729D03*
D14*
X0048800Y0113800D03*
X0048800Y0127186D03*
D15*
X0083800Y0118800D03*
X0093800Y0118800D03*
X0088800Y0126300D03*
X0133800Y0118800D03*
X0143800Y0118800D03*
X0138800Y0126300D03*
X0188800Y0118800D03*
X0198800Y0118800D03*
X0193800Y0126300D03*
D16*
X0195675Y0128175D01*
X0205050Y0128175D01*
X0208800Y0131925D01*
X0208800Y0136300D01*
X0047550Y0136300D01*
X0045675Y0134425D01*
X0045675Y0127550D01*
X0048800Y0127550D01*
X0048800Y0127186D01*
X0051300Y0130675D02*
X0134425Y0130675D01*
X0138800Y0126300D01*
X0143800Y0118800D02*
X0148175Y0123175D01*
X0190675Y0123175D01*
X0195050Y0118800D01*
X0198800Y0118800D01*
X0205675Y0118800D01*
X0205675Y0083800D01*
X0203175Y0081300D01*
X0201300Y0081300D01*
X0201300Y0071925D01*
X0200871Y0071729D01*
X0200675Y0071300D01*
X0198800Y0069425D01*
X0093800Y0069425D01*
X0088800Y0064425D01*
X0088800Y0062400D01*
X0058800Y0092400D01*
X0068800Y0092400D02*
X0078800Y0092400D01*
X0095525Y0075675D01*
X0116925Y0075675D01*
X0118800Y0073800D01*
X0118800Y0083800D02*
X0148800Y0083800D01*
X0150675Y0085675D01*
X0186300Y0085675D01*
X0186729Y0085871D01*
X0200675Y0086300D02*
X0200871Y0085871D01*
X0200675Y0086300D02*
X0186300Y0100675D01*
X0044425Y0100675D01*
X0044425Y0115050D01*
X0052550Y0123175D01*
X0085675Y0123175D01*
X0088800Y0126300D01*
X0083800Y0118800D02*
X0088175Y0114425D01*
X0180050Y0114425D01*
X0181925Y0116300D01*
X0181925Y0111925D02*
X0188800Y0118800D01*
X0181925Y0111925D02*
X0138800Y0111925D01*
X0138800Y0103800D01*
X0138800Y0111925D02*
X0050675Y0111925D01*
X0048800Y0113800D01*
X0051300Y0130675D02*
X0048800Y0133175D01*
X0040675Y0147550D02*
X0040675Y0070675D01*
X0070525Y0070675D01*
X0078800Y0062400D01*
X0058800Y0062400D02*
X0082400Y0038800D01*
X0118800Y0038800D01*
X0148800Y0073800D02*
X0144425Y0078175D01*
X0103025Y0078175D01*
X0088800Y0092400D01*
X0133800Y0118800D02*
X0137550Y0118800D01*
X0149425Y0130675D01*
X0203175Y0130675D01*
X0205675Y0133175D01*
X0190675Y0160050D02*
X0076300Y0160050D01*
D17*
X0076300Y0160050D03*
X0040675Y0147550D03*
X0048800Y0133175D03*
X0138800Y0103800D03*
X0181925Y0116300D03*
X0205675Y0133175D03*
X0190675Y0160050D03*
D18*
X0249313Y0008100D02*
X0016487Y0008100D01*
X0016847Y0008461D01*
X0017772Y0010692D01*
X0017772Y0013108D01*
X0016847Y0015339D01*
X0015139Y0017047D01*
X0012908Y0017972D01*
X0010492Y0017972D01*
X0008261Y0017047D01*
X0008100Y0016887D01*
X0008100Y0155813D01*
X0008261Y0155653D01*
X0010492Y0154728D01*
X0012908Y0154728D01*
X0015139Y0155653D01*
X0016847Y0157361D01*
X0017772Y0159592D01*
X0017772Y0162008D01*
X0016847Y0164239D01*
X0016626Y0164461D01*
X0249174Y0164461D01*
X0248453Y0163739D01*
X0247528Y0161508D01*
X0247528Y0159092D01*
X0248453Y0156861D01*
X0250161Y0155153D01*
X0252392Y0154228D01*
X0254808Y0154228D01*
X0257039Y0155153D01*
X0258201Y0156314D01*
X0258201Y0016386D01*
X0256539Y0018047D01*
X0254308Y0018972D01*
X0251892Y0018972D01*
X0249661Y0018047D01*
X0247953Y0016339D01*
X0247028Y0014108D01*
X0247028Y0011692D01*
X0247953Y0009461D01*
X0249313Y0008100D01*
X0248825Y0008588D02*
X0016900Y0008588D01*
X0017148Y0009187D02*
X0248227Y0009187D01*
X0247818Y0009785D02*
X0017396Y0009785D01*
X0017644Y0010384D02*
X0247570Y0010384D01*
X0247322Y0010982D02*
X0017772Y0010982D01*
X0017772Y0011581D02*
X0247075Y0011581D01*
X0247028Y0012179D02*
X0017772Y0012179D01*
X0017772Y0012778D02*
X0247028Y0012778D01*
X0247028Y0013376D02*
X0017660Y0013376D01*
X0017413Y0013975D02*
X0247028Y0013975D01*
X0247221Y0014573D02*
X0017165Y0014573D01*
X0016917Y0015172D02*
X0247469Y0015172D01*
X0247717Y0015770D02*
X0016416Y0015770D01*
X0015818Y0016369D02*
X0247982Y0016369D01*
X0248581Y0016967D02*
X0015219Y0016967D01*
X0013888Y0017566D02*
X0249179Y0017566D01*
X0249943Y0018164D02*
X0008100Y0018164D01*
X0008100Y0017566D02*
X0009512Y0017566D01*
X0008181Y0016967D02*
X0008100Y0016967D01*
X0008100Y0018763D02*
X0251388Y0018763D01*
X0254812Y0018763D02*
X0258201Y0018763D01*
X0258201Y0019361D02*
X0008100Y0019361D01*
X0008100Y0019960D02*
X0258201Y0019960D01*
X0258201Y0020558D02*
X0008100Y0020558D01*
X0008100Y0021157D02*
X0258201Y0021157D01*
X0258201Y0021755D02*
X0008100Y0021755D01*
X0008100Y0022354D02*
X0258201Y0022354D01*
X0258201Y0022952D02*
X0008100Y0022952D01*
X0008100Y0023551D02*
X0258201Y0023551D01*
X0258201Y0024149D02*
X0008100Y0024149D01*
X0008100Y0024748D02*
X0258201Y0024748D01*
X0258201Y0025346D02*
X0008100Y0025346D01*
X0008100Y0025945D02*
X0258201Y0025945D01*
X0258201Y0026543D02*
X0008100Y0026543D01*
X0008100Y0027142D02*
X0258201Y0027142D01*
X0258201Y0027740D02*
X0008100Y0027740D01*
X0008100Y0028339D02*
X0258201Y0028339D01*
X0258201Y0028937D02*
X0008100Y0028937D01*
X0008100Y0029536D02*
X0258201Y0029536D01*
X0258201Y0030134D02*
X0008100Y0030134D01*
X0008100Y0030733D02*
X0258201Y0030733D01*
X0258201Y0031332D02*
X0141938Y0031332D01*
X0141907Y0031300D02*
X0146300Y0035693D01*
X0146300Y0041907D01*
X0141907Y0046300D01*
X0135693Y0046300D01*
X0131300Y0041907D01*
X0131300Y0035693D01*
X0135693Y0031300D01*
X0141907Y0031300D01*
X0142537Y0031930D02*
X0258201Y0031930D01*
X0258201Y0032529D02*
X0143135Y0032529D01*
X0143734Y0033127D02*
X0258201Y0033127D01*
X0258201Y0033726D02*
X0144332Y0033726D01*
X0144931Y0034324D02*
X0258201Y0034324D01*
X0258201Y0034923D02*
X0145529Y0034923D01*
X0146128Y0035521D02*
X0258201Y0035521D01*
X0258201Y0036120D02*
X0146300Y0036120D01*
X0146300Y0036718D02*
X0258201Y0036718D01*
X0258201Y0037317D02*
X0146300Y0037317D01*
X0146300Y0037915D02*
X0258201Y0037915D01*
X0258201Y0038514D02*
X0146300Y0038514D01*
X0146300Y0039112D02*
X0258201Y0039112D01*
X0258201Y0039711D02*
X0146300Y0039711D01*
X0146300Y0040309D02*
X0258201Y0040309D01*
X0258201Y0040908D02*
X0146300Y0040908D01*
X0146300Y0041506D02*
X0258201Y0041506D01*
X0258201Y0042105D02*
X0146102Y0042105D01*
X0145503Y0042703D02*
X0258201Y0042703D01*
X0258201Y0043302D02*
X0144905Y0043302D01*
X0144306Y0043900D02*
X0258201Y0043900D01*
X0258201Y0044499D02*
X0143708Y0044499D01*
X0143109Y0045097D02*
X0258201Y0045097D01*
X0258201Y0045696D02*
X0142511Y0045696D01*
X0141912Y0046294D02*
X0258201Y0046294D01*
X0258201Y0046893D02*
X0076853Y0046893D01*
X0077451Y0046294D02*
X0115688Y0046294D01*
X0115693Y0046300D02*
X0111300Y0041907D01*
X0111300Y0040600D01*
X0083146Y0040600D01*
X0067719Y0056026D01*
X0068024Y0055900D01*
X0069576Y0055900D01*
X0071009Y0056494D01*
X0072106Y0057591D01*
X0072700Y0059024D01*
X0072700Y0065776D01*
X0072574Y0066081D01*
X0074900Y0063754D01*
X0074900Y0059024D01*
X0075494Y0057591D01*
X0076591Y0056494D01*
X0078024Y0055900D01*
X0079576Y0055900D01*
X0081009Y0056494D01*
X0082106Y0057591D01*
X0082700Y0059024D01*
X0082700Y0065776D01*
X0082574Y0066081D01*
X0084900Y0063754D01*
X0084900Y0059024D01*
X0085494Y0057591D01*
X0086591Y0056494D01*
X0088024Y0055900D01*
X0089576Y0055900D01*
X0091009Y0056494D01*
X0092106Y0057591D01*
X0092700Y0059024D01*
X0092700Y0065776D01*
X0092699Y0065778D01*
X0094546Y0067625D01*
X0199546Y0067625D01*
X0199581Y0067660D01*
X0200025Y0067476D01*
X0201717Y0067476D01*
X0203280Y0068124D01*
X0204476Y0069320D01*
X0205124Y0070883D01*
X0205124Y0072575D01*
X0204476Y0074138D01*
X0203280Y0075334D01*
X0203100Y0075409D01*
X0203100Y0079500D01*
X0203921Y0079500D01*
X0206421Y0082000D01*
X0207475Y0083054D01*
X0207475Y0119546D01*
X0206421Y0120600D01*
X0202515Y0120600D01*
X0200415Y0122700D01*
X0197185Y0122700D01*
X0195440Y0120955D01*
X0193996Y0122400D01*
X0195415Y0122400D01*
X0197700Y0124685D01*
X0197700Y0126375D01*
X0205796Y0126375D01*
X0209546Y0130125D01*
X0210600Y0131179D01*
X0210600Y0137046D01*
X0209546Y0138100D01*
X0046804Y0138100D01*
X0044929Y0136225D01*
X0043875Y0135171D01*
X0043875Y0126804D01*
X0044929Y0125750D01*
X0045414Y0125750D01*
X0045682Y0125102D01*
X0046717Y0124068D01*
X0048068Y0123508D01*
X0049532Y0123508D01*
X0050883Y0124068D01*
X0051918Y0125102D01*
X0052478Y0126454D01*
X0052478Y0127917D01*
X0052081Y0128875D01*
X0085860Y0128875D01*
X0084900Y0127915D01*
X0084900Y0124975D01*
X0051804Y0124975D01*
X0043679Y0116850D01*
X0042625Y0115796D01*
X0042625Y0099929D01*
X0043679Y0098875D01*
X0057964Y0098875D01*
X0056591Y0098306D01*
X0055494Y0097209D01*
X0054900Y0095776D01*
X0054900Y0089024D01*
X0055494Y0087591D01*
X0056591Y0086494D01*
X0058024Y0085900D01*
X0059576Y0085900D01*
X0061009Y0086494D01*
X0061585Y0087070D01*
X0079881Y0068774D01*
X0079576Y0068900D01*
X0078024Y0068900D01*
X0076591Y0068306D01*
X0076015Y0067730D01*
X0071271Y0072475D01*
X0042475Y0072475D01*
X0042475Y0145406D01*
X0043039Y0145970D01*
X0043464Y0146995D01*
X0043464Y0148105D01*
X0043039Y0149130D01*
X0042255Y0149914D01*
X0041230Y0150339D01*
X0040120Y0150339D01*
X0039095Y0149914D01*
X0038311Y0149130D01*
X0037886Y0148105D01*
X0037886Y0146995D01*
X0038311Y0145970D01*
X0038875Y0145406D01*
X0038875Y0069929D01*
X0039929Y0068875D01*
X0057964Y0068875D01*
X0056591Y0068306D01*
X0055494Y0067209D01*
X0054900Y0065776D01*
X0054900Y0059024D01*
X0055494Y0057591D01*
X0056591Y0056494D01*
X0058024Y0055900D01*
X0059576Y0055900D01*
X0061009Y0056494D01*
X0061585Y0057070D01*
X0080600Y0038054D01*
X0081654Y0037000D01*
X0111300Y0037000D01*
X0111300Y0035693D01*
X0115693Y0031300D01*
X0121907Y0031300D01*
X0126300Y0035693D01*
X0126300Y0041907D01*
X0121907Y0046300D01*
X0115693Y0046300D01*
X0115089Y0045696D02*
X0078050Y0045696D01*
X0078648Y0045097D02*
X0114491Y0045097D01*
X0113892Y0044499D02*
X0079247Y0044499D01*
X0079845Y0043900D02*
X0113294Y0043900D01*
X0112695Y0043302D02*
X0080444Y0043302D01*
X0081042Y0042703D02*
X0112097Y0042703D01*
X0111498Y0042105D02*
X0081641Y0042105D01*
X0082239Y0041506D02*
X0111300Y0041506D01*
X0111300Y0040908D02*
X0082838Y0040908D01*
X0080141Y0038514D02*
X0008100Y0038514D01*
X0008100Y0039112D02*
X0079542Y0039112D01*
X0078944Y0039711D02*
X0008100Y0039711D01*
X0008100Y0040309D02*
X0078345Y0040309D01*
X0077747Y0040908D02*
X0008100Y0040908D01*
X0008100Y0041506D02*
X0077148Y0041506D01*
X0076550Y0042105D02*
X0008100Y0042105D01*
X0008100Y0042703D02*
X0075951Y0042703D01*
X0075353Y0043302D02*
X0008100Y0043302D01*
X0008100Y0043900D02*
X0074754Y0043900D01*
X0074156Y0044499D02*
X0008100Y0044499D01*
X0008100Y0045097D02*
X0073557Y0045097D01*
X0072959Y0045696D02*
X0008100Y0045696D01*
X0008100Y0046294D02*
X0072360Y0046294D01*
X0071762Y0046893D02*
X0008100Y0046893D01*
X0008100Y0047491D02*
X0071163Y0047491D01*
X0070565Y0048090D02*
X0008100Y0048090D01*
X0008100Y0048688D02*
X0069966Y0048688D01*
X0069368Y0049287D02*
X0008100Y0049287D01*
X0008100Y0049885D02*
X0068769Y0049885D01*
X0068171Y0050484D02*
X0008100Y0050484D01*
X0008100Y0051082D02*
X0067572Y0051082D01*
X0066973Y0051681D02*
X0008100Y0051681D01*
X0008100Y0052279D02*
X0066375Y0052279D01*
X0065776Y0052878D02*
X0008100Y0052878D01*
X0008100Y0053476D02*
X0065178Y0053476D01*
X0064579Y0054075D02*
X0008100Y0054075D01*
X0008100Y0054673D02*
X0063981Y0054673D01*
X0063382Y0055272D02*
X0008100Y0055272D01*
X0008100Y0055870D02*
X0062784Y0055870D01*
X0062185Y0056469D02*
X0060949Y0056469D01*
X0061583Y0057068D02*
X0061587Y0057068D01*
X0056651Y0056469D02*
X0008100Y0056469D01*
X0008100Y0057068D02*
X0056017Y0057068D01*
X0055463Y0057666D02*
X0008100Y0057666D01*
X0008100Y0058265D02*
X0055215Y0058265D01*
X0054967Y0058863D02*
X0008100Y0058863D01*
X0008100Y0059462D02*
X0054900Y0059462D01*
X0054900Y0060060D02*
X0008100Y0060060D01*
X0008100Y0060659D02*
X0054900Y0060659D01*
X0054900Y0061257D02*
X0008100Y0061257D01*
X0008100Y0061856D02*
X0054900Y0061856D01*
X0054900Y0062454D02*
X0008100Y0062454D01*
X0008100Y0063053D02*
X0054900Y0063053D01*
X0054900Y0063651D02*
X0008100Y0063651D01*
X0008100Y0064250D02*
X0054900Y0064250D01*
X0054900Y0064848D02*
X0008100Y0064848D01*
X0008100Y0065447D02*
X0054900Y0065447D01*
X0055012Y0066045D02*
X0008100Y0066045D01*
X0008100Y0066644D02*
X0055260Y0066644D01*
X0055527Y0067242D02*
X0008100Y0067242D01*
X0008100Y0067841D02*
X0056125Y0067841D01*
X0056912Y0068439D02*
X0008100Y0068439D01*
X0008100Y0069038D02*
X0039767Y0069038D01*
X0039168Y0069636D02*
X0008100Y0069636D01*
X0008100Y0070235D02*
X0038875Y0070235D01*
X0038875Y0070833D02*
X0008100Y0070833D01*
X0008100Y0071432D02*
X0038875Y0071432D01*
X0038875Y0072030D02*
X0008100Y0072030D01*
X0008100Y0072629D02*
X0038875Y0072629D01*
X0038875Y0073227D02*
X0008100Y0073227D01*
X0008100Y0073826D02*
X0038875Y0073826D01*
X0038875Y0074424D02*
X0008100Y0074424D01*
X0008100Y0075023D02*
X0038875Y0075023D01*
X0038875Y0075621D02*
X0008100Y0075621D01*
X0008100Y0076220D02*
X0038875Y0076220D01*
X0038875Y0076818D02*
X0008100Y0076818D01*
X0008100Y0077417D02*
X0038875Y0077417D01*
X0038875Y0078015D02*
X0008100Y0078015D01*
X0008100Y0078614D02*
X0038875Y0078614D01*
X0038875Y0079212D02*
X0008100Y0079212D01*
X0008100Y0079811D02*
X0038875Y0079811D01*
X0038875Y0080409D02*
X0008100Y0080409D01*
X0008100Y0081008D02*
X0038875Y0081008D01*
X0038875Y0081606D02*
X0008100Y0081606D01*
X0008100Y0082205D02*
X0038875Y0082205D01*
X0038875Y0082803D02*
X0008100Y0082803D01*
X0008100Y0083402D02*
X0038875Y0083402D01*
X0038875Y0084001D02*
X0008100Y0084001D01*
X0008100Y0084599D02*
X0038875Y0084599D01*
X0038875Y0085198D02*
X0008100Y0085198D01*
X0008100Y0085796D02*
X0038875Y0085796D01*
X0038875Y0086395D02*
X0008100Y0086395D01*
X0008100Y0086993D02*
X0038875Y0086993D01*
X0038875Y0087592D02*
X0008100Y0087592D01*
X0008100Y0088190D02*
X0038875Y0088190D01*
X0038875Y0088789D02*
X0008100Y0088789D01*
X0008100Y0089387D02*
X0038875Y0089387D01*
X0038875Y0089986D02*
X0008100Y0089986D01*
X0008100Y0090584D02*
X0038875Y0090584D01*
X0038875Y0091183D02*
X0008100Y0091183D01*
X0008100Y0091781D02*
X0038875Y0091781D01*
X0038875Y0092380D02*
X0008100Y0092380D01*
X0008100Y0092978D02*
X0038875Y0092978D01*
X0038875Y0093577D02*
X0008100Y0093577D01*
X0008100Y0094175D02*
X0038875Y0094175D01*
X0038875Y0094774D02*
X0008100Y0094774D01*
X0008100Y0095372D02*
X0038875Y0095372D01*
X0038875Y0095971D02*
X0008100Y0095971D01*
X0008100Y0096569D02*
X0038875Y0096569D01*
X0038875Y0097168D02*
X0008100Y0097168D01*
X0008100Y0097766D02*
X0038875Y0097766D01*
X0038875Y0098365D02*
X0008100Y0098365D01*
X0008100Y0098963D02*
X0038875Y0098963D01*
X0038875Y0099562D02*
X0008100Y0099562D01*
X0008100Y0100160D02*
X0038875Y0100160D01*
X0038875Y0100759D02*
X0008100Y0100759D01*
X0008100Y0101357D02*
X0038875Y0101357D01*
X0038875Y0101956D02*
X0008100Y0101956D01*
X0008100Y0102554D02*
X0038875Y0102554D01*
X0038875Y0103153D02*
X0008100Y0103153D01*
X0008100Y0103751D02*
X0038875Y0103751D01*
X0038875Y0104350D02*
X0008100Y0104350D01*
X0008100Y0104948D02*
X0038875Y0104948D01*
X0038875Y0105547D02*
X0008100Y0105547D01*
X0008100Y0106145D02*
X0038875Y0106145D01*
X0038875Y0106744D02*
X0008100Y0106744D01*
X0008100Y0107342D02*
X0038875Y0107342D01*
X0038875Y0107941D02*
X0008100Y0107941D01*
X0008100Y0108539D02*
X0038875Y0108539D01*
X0038875Y0109138D02*
X0008100Y0109138D01*
X0008100Y0109737D02*
X0038875Y0109737D01*
X0038875Y0110335D02*
X0008100Y0110335D01*
X0008100Y0110934D02*
X0038875Y0110934D01*
X0038875Y0111532D02*
X0008100Y0111532D01*
X0008100Y0112131D02*
X0038875Y0112131D01*
X0038875Y0112729D02*
X0008100Y0112729D01*
X0008100Y0113328D02*
X0038875Y0113328D01*
X0038875Y0113926D02*
X0008100Y0113926D01*
X0008100Y0114525D02*
X0038875Y0114525D01*
X0038875Y0115123D02*
X0008100Y0115123D01*
X0008100Y0115722D02*
X0038875Y0115722D01*
X0038875Y0116320D02*
X0008100Y0116320D01*
X0008100Y0116919D02*
X0038875Y0116919D01*
X0038875Y0117517D02*
X0008100Y0117517D01*
X0008100Y0118116D02*
X0038875Y0118116D01*
X0038875Y0118714D02*
X0008100Y0118714D01*
X0008100Y0119313D02*
X0038875Y0119313D01*
X0038875Y0119911D02*
X0008100Y0119911D01*
X0008100Y0120510D02*
X0038875Y0120510D01*
X0038875Y0121108D02*
X0008100Y0121108D01*
X0008100Y0121707D02*
X0038875Y0121707D01*
X0038875Y0122305D02*
X0008100Y0122305D01*
X0008100Y0122904D02*
X0038875Y0122904D01*
X0038875Y0123502D02*
X0008100Y0123502D01*
X0008100Y0124101D02*
X0038875Y0124101D01*
X0038875Y0124699D02*
X0008100Y0124699D01*
X0008100Y0125298D02*
X0038875Y0125298D01*
X0038875Y0125896D02*
X0008100Y0125896D01*
X0008100Y0126495D02*
X0038875Y0126495D01*
X0038875Y0127093D02*
X0008100Y0127093D01*
X0008100Y0127692D02*
X0038875Y0127692D01*
X0038875Y0128290D02*
X0008100Y0128290D01*
X0008100Y0128889D02*
X0038875Y0128889D01*
X0038875Y0129487D02*
X0008100Y0129487D01*
X0008100Y0130086D02*
X0038875Y0130086D01*
X0038875Y0130684D02*
X0008100Y0130684D01*
X0008100Y0131283D02*
X0038875Y0131283D01*
X0038875Y0131881D02*
X0008100Y0131881D01*
X0008100Y0132480D02*
X0038875Y0132480D01*
X0038875Y0133078D02*
X0008100Y0133078D01*
X0008100Y0133677D02*
X0038875Y0133677D01*
X0038875Y0134275D02*
X0008100Y0134275D01*
X0008100Y0134874D02*
X0038875Y0134874D01*
X0038875Y0135472D02*
X0008100Y0135472D01*
X0008100Y0136071D02*
X0038875Y0136071D01*
X0038875Y0136670D02*
X0008100Y0136670D01*
X0008100Y0137268D02*
X0038875Y0137268D01*
X0038875Y0137867D02*
X0008100Y0137867D01*
X0008100Y0138465D02*
X0038875Y0138465D01*
X0038875Y0139064D02*
X0008100Y0139064D01*
X0008100Y0139662D02*
X0038875Y0139662D01*
X0038875Y0140261D02*
X0008100Y0140261D01*
X0008100Y0140859D02*
X0038875Y0140859D01*
X0038875Y0141458D02*
X0008100Y0141458D01*
X0008100Y0142056D02*
X0038875Y0142056D01*
X0038875Y0142655D02*
X0008100Y0142655D01*
X0008100Y0143253D02*
X0038875Y0143253D01*
X0038875Y0143852D02*
X0008100Y0143852D01*
X0008100Y0144450D02*
X0038875Y0144450D01*
X0038875Y0145049D02*
X0008100Y0145049D01*
X0008100Y0145647D02*
X0038634Y0145647D01*
X0038196Y0146246D02*
X0008100Y0146246D01*
X0008100Y0146844D02*
X0037949Y0146844D01*
X0037886Y0147443D02*
X0008100Y0147443D01*
X0008100Y0148041D02*
X0037886Y0148041D01*
X0038108Y0148640D02*
X0008100Y0148640D01*
X0008100Y0149238D02*
X0038419Y0149238D01*
X0039018Y0149837D02*
X0008100Y0149837D01*
X0008100Y0150435D02*
X0258201Y0150435D01*
X0258201Y0149837D02*
X0042332Y0149837D01*
X0042931Y0149238D02*
X0258201Y0149238D01*
X0258201Y0148640D02*
X0043242Y0148640D01*
X0043464Y0148041D02*
X0258201Y0148041D01*
X0258201Y0147443D02*
X0043464Y0147443D01*
X0043401Y0146844D02*
X0258201Y0146844D01*
X0258201Y0146246D02*
X0043153Y0146246D01*
X0042716Y0145647D02*
X0258201Y0145647D01*
X0258201Y0145049D02*
X0042475Y0145049D01*
X0042475Y0144450D02*
X0258201Y0144450D01*
X0258201Y0143852D02*
X0042475Y0143852D01*
X0042475Y0143253D02*
X0258201Y0143253D01*
X0258201Y0142655D02*
X0042475Y0142655D01*
X0042475Y0142056D02*
X0258201Y0142056D01*
X0258201Y0141458D02*
X0042475Y0141458D01*
X0042475Y0140859D02*
X0258201Y0140859D01*
X0258201Y0140261D02*
X0042475Y0140261D01*
X0042475Y0139662D02*
X0258201Y0139662D01*
X0258201Y0139064D02*
X0042475Y0139064D01*
X0042475Y0138465D02*
X0258201Y0138465D01*
X0258201Y0137867D02*
X0209779Y0137867D01*
X0210378Y0137268D02*
X0258201Y0137268D01*
X0258201Y0136670D02*
X0210600Y0136670D01*
X0210600Y0136071D02*
X0258201Y0136071D01*
X0258201Y0135472D02*
X0210600Y0135472D01*
X0210600Y0134874D02*
X0258201Y0134874D01*
X0258201Y0134275D02*
X0210600Y0134275D01*
X0210600Y0133677D02*
X0258201Y0133677D01*
X0258201Y0133078D02*
X0210600Y0133078D01*
X0210600Y0132480D02*
X0258201Y0132480D01*
X0258201Y0131881D02*
X0210600Y0131881D01*
X0210600Y0131283D02*
X0258201Y0131283D01*
X0258201Y0130684D02*
X0210105Y0130684D01*
X0209506Y0130086D02*
X0258201Y0130086D01*
X0258201Y0129487D02*
X0208908Y0129487D01*
X0208309Y0128889D02*
X0258201Y0128889D01*
X0258201Y0128290D02*
X0207711Y0128290D01*
X0207112Y0127692D02*
X0258201Y0127692D01*
X0258201Y0127093D02*
X0206514Y0127093D01*
X0205915Y0126495D02*
X0258201Y0126495D01*
X0258201Y0125896D02*
X0197700Y0125896D01*
X0197700Y0125298D02*
X0258201Y0125298D01*
X0258201Y0124699D02*
X0197700Y0124699D01*
X0197116Y0124101D02*
X0258201Y0124101D01*
X0258201Y0123502D02*
X0196518Y0123502D01*
X0195919Y0122904D02*
X0258201Y0122904D01*
X0258201Y0122305D02*
X0200810Y0122305D01*
X0201409Y0121707D02*
X0258201Y0121707D01*
X0258201Y0121108D02*
X0202007Y0121108D01*
X0206511Y0120510D02*
X0258201Y0120510D01*
X0258201Y0119911D02*
X0207109Y0119911D01*
X0207475Y0119313D02*
X0258201Y0119313D01*
X0258201Y0118714D02*
X0207475Y0118714D01*
X0207475Y0118116D02*
X0258201Y0118116D01*
X0258201Y0117517D02*
X0207475Y0117517D01*
X0207475Y0116919D02*
X0258201Y0116919D01*
X0258201Y0116320D02*
X0207475Y0116320D01*
X0207475Y0115722D02*
X0258201Y0115722D01*
X0258201Y0115123D02*
X0207475Y0115123D01*
X0207475Y0114525D02*
X0258201Y0114525D01*
X0258201Y0113926D02*
X0207475Y0113926D01*
X0207475Y0113328D02*
X0258201Y0113328D01*
X0258201Y0112729D02*
X0207475Y0112729D01*
X0207475Y0112131D02*
X0258201Y0112131D01*
X0258201Y0111532D02*
X0207475Y0111532D01*
X0207475Y0110934D02*
X0258201Y0110934D01*
X0258201Y0110335D02*
X0207475Y0110335D01*
X0207475Y0109737D02*
X0258201Y0109737D01*
X0258201Y0109138D02*
X0207475Y0109138D01*
X0207475Y0108539D02*
X0258201Y0108539D01*
X0258201Y0107941D02*
X0207475Y0107941D01*
X0207475Y0107342D02*
X0258201Y0107342D01*
X0258201Y0106744D02*
X0207475Y0106744D01*
X0207475Y0106145D02*
X0258201Y0106145D01*
X0258201Y0105547D02*
X0207475Y0105547D01*
X0207475Y0104948D02*
X0258201Y0104948D01*
X0258201Y0104350D02*
X0207475Y0104350D01*
X0207475Y0103751D02*
X0258201Y0103751D01*
X0258201Y0103153D02*
X0207475Y0103153D01*
X0207475Y0102554D02*
X0258201Y0102554D01*
X0258201Y0101956D02*
X0207475Y0101956D01*
X0207475Y0101357D02*
X0258201Y0101357D01*
X0258201Y0100759D02*
X0207475Y0100759D01*
X0207475Y0100160D02*
X0258201Y0100160D01*
X0258201Y0099562D02*
X0207475Y0099562D01*
X0207475Y0098963D02*
X0258201Y0098963D01*
X0258201Y0098365D02*
X0207475Y0098365D01*
X0207475Y0097766D02*
X0258201Y0097766D01*
X0258201Y0097168D02*
X0207475Y0097168D01*
X0207475Y0096569D02*
X0258201Y0096569D01*
X0258201Y0095971D02*
X0207475Y0095971D01*
X0207475Y0095372D02*
X0258201Y0095372D01*
X0258201Y0094774D02*
X0207475Y0094774D01*
X0207475Y0094175D02*
X0258201Y0094175D01*
X0258201Y0093577D02*
X0207475Y0093577D01*
X0207475Y0092978D02*
X0258201Y0092978D01*
X0258201Y0092380D02*
X0207475Y0092380D01*
X0207475Y0091781D02*
X0258201Y0091781D01*
X0258201Y0091183D02*
X0207475Y0091183D01*
X0207475Y0090584D02*
X0258201Y0090584D01*
X0258201Y0089986D02*
X0207475Y0089986D01*
X0207475Y0089387D02*
X0258201Y0089387D01*
X0258201Y0088789D02*
X0207475Y0088789D01*
X0207475Y0088190D02*
X0258201Y0088190D01*
X0258201Y0087592D02*
X0207475Y0087592D01*
X0207475Y0086993D02*
X0258201Y0086993D01*
X0258201Y0086395D02*
X0207475Y0086395D01*
X0207475Y0085796D02*
X0258201Y0085796D01*
X0258201Y0085198D02*
X0207475Y0085198D01*
X0207475Y0084599D02*
X0258201Y0084599D01*
X0258201Y0084001D02*
X0207475Y0084001D01*
X0207475Y0083402D02*
X0258201Y0083402D01*
X0258201Y0082803D02*
X0207224Y0082803D01*
X0206626Y0082205D02*
X0258201Y0082205D01*
X0258201Y0081606D02*
X0206027Y0081606D01*
X0205429Y0081008D02*
X0258201Y0081008D01*
X0258201Y0080409D02*
X0204830Y0080409D01*
X0204232Y0079811D02*
X0258201Y0079811D01*
X0258201Y0079212D02*
X0203100Y0079212D01*
X0203100Y0078614D02*
X0258201Y0078614D01*
X0258201Y0078015D02*
X0203100Y0078015D01*
X0203100Y0077417D02*
X0258201Y0077417D01*
X0258201Y0076818D02*
X0203100Y0076818D01*
X0203100Y0076220D02*
X0258201Y0076220D01*
X0258201Y0075621D02*
X0203100Y0075621D01*
X0203591Y0075023D02*
X0258201Y0075023D01*
X0258201Y0074424D02*
X0204190Y0074424D01*
X0204606Y0073826D02*
X0258201Y0073826D01*
X0258201Y0073227D02*
X0204853Y0073227D01*
X0205101Y0072629D02*
X0258201Y0072629D01*
X0258201Y0072030D02*
X0205124Y0072030D01*
X0205124Y0071432D02*
X0258201Y0071432D01*
X0258201Y0070833D02*
X0205103Y0070833D01*
X0204855Y0070235D02*
X0258201Y0070235D01*
X0258201Y0069636D02*
X0204607Y0069636D01*
X0204194Y0069038D02*
X0258201Y0069038D01*
X0258201Y0068439D02*
X0203595Y0068439D01*
X0202596Y0067841D02*
X0258201Y0067841D01*
X0258201Y0067242D02*
X0094163Y0067242D01*
X0093564Y0066644D02*
X0258201Y0066644D01*
X0258201Y0066045D02*
X0092966Y0066045D01*
X0092700Y0065447D02*
X0258201Y0065447D01*
X0258201Y0064848D02*
X0092700Y0064848D01*
X0092700Y0064250D02*
X0258201Y0064250D01*
X0258201Y0063651D02*
X0092700Y0063651D01*
X0092700Y0063053D02*
X0258201Y0063053D01*
X0258201Y0062454D02*
X0092700Y0062454D01*
X0092700Y0061856D02*
X0258201Y0061856D01*
X0258201Y0061257D02*
X0092700Y0061257D01*
X0092700Y0060659D02*
X0258201Y0060659D01*
X0258201Y0060060D02*
X0092700Y0060060D01*
X0092700Y0059462D02*
X0258201Y0059462D01*
X0258201Y0058863D02*
X0092633Y0058863D01*
X0092385Y0058265D02*
X0258201Y0058265D01*
X0258201Y0057666D02*
X0092137Y0057666D01*
X0091583Y0057068D02*
X0258201Y0057068D01*
X0258201Y0056469D02*
X0090949Y0056469D01*
X0086651Y0056469D02*
X0080949Y0056469D01*
X0081583Y0057068D02*
X0086017Y0057068D01*
X0085463Y0057666D02*
X0082137Y0057666D01*
X0082385Y0058265D02*
X0085215Y0058265D01*
X0084967Y0058863D02*
X0082633Y0058863D01*
X0082700Y0059462D02*
X0084900Y0059462D01*
X0084900Y0060060D02*
X0082700Y0060060D01*
X0082700Y0060659D02*
X0084900Y0060659D01*
X0084900Y0061257D02*
X0082700Y0061257D01*
X0082700Y0061856D02*
X0084900Y0061856D01*
X0084900Y0062454D02*
X0082700Y0062454D01*
X0082700Y0063053D02*
X0084900Y0063053D01*
X0084900Y0063651D02*
X0082700Y0063651D01*
X0082700Y0064250D02*
X0084405Y0064250D01*
X0083806Y0064848D02*
X0082700Y0064848D01*
X0082700Y0065447D02*
X0083208Y0065447D01*
X0082609Y0066045D02*
X0082588Y0066045D01*
X0079617Y0069038D02*
X0074708Y0069038D01*
X0074109Y0069636D02*
X0079018Y0069636D01*
X0078420Y0070235D02*
X0073511Y0070235D01*
X0072912Y0070833D02*
X0077821Y0070833D01*
X0077223Y0071432D02*
X0072314Y0071432D01*
X0071715Y0072030D02*
X0076624Y0072030D01*
X0076026Y0072629D02*
X0042475Y0072629D01*
X0042475Y0073227D02*
X0075427Y0073227D01*
X0074829Y0073826D02*
X0042475Y0073826D01*
X0042475Y0074424D02*
X0074230Y0074424D01*
X0073632Y0075023D02*
X0042475Y0075023D01*
X0042475Y0075621D02*
X0073033Y0075621D01*
X0072435Y0076220D02*
X0042475Y0076220D01*
X0042475Y0076818D02*
X0071836Y0076818D01*
X0071238Y0077417D02*
X0042475Y0077417D01*
X0042475Y0078015D02*
X0070639Y0078015D01*
X0070040Y0078614D02*
X0042475Y0078614D01*
X0042475Y0079212D02*
X0069442Y0079212D01*
X0068843Y0079811D02*
X0042475Y0079811D01*
X0042475Y0080409D02*
X0068245Y0080409D01*
X0067646Y0081008D02*
X0042475Y0081008D01*
X0042475Y0081606D02*
X0067048Y0081606D01*
X0066449Y0082205D02*
X0042475Y0082205D01*
X0042475Y0082803D02*
X0065851Y0082803D01*
X0065252Y0083402D02*
X0042475Y0083402D01*
X0042475Y0084001D02*
X0064654Y0084001D01*
X0064055Y0084599D02*
X0042475Y0084599D01*
X0042475Y0085198D02*
X0063457Y0085198D01*
X0062858Y0085796D02*
X0042475Y0085796D01*
X0042475Y0086395D02*
X0056830Y0086395D01*
X0056091Y0086993D02*
X0042475Y0086993D01*
X0042475Y0087592D02*
X0055493Y0087592D01*
X0055246Y0088190D02*
X0042475Y0088190D01*
X0042475Y0088789D02*
X0054998Y0088789D01*
X0054900Y0089387D02*
X0042475Y0089387D01*
X0042475Y0089986D02*
X0054900Y0089986D01*
X0054900Y0090584D02*
X0042475Y0090584D01*
X0042475Y0091183D02*
X0054900Y0091183D01*
X0054900Y0091781D02*
X0042475Y0091781D01*
X0042475Y0092380D02*
X0054900Y0092380D01*
X0054900Y0092978D02*
X0042475Y0092978D01*
X0042475Y0093577D02*
X0054900Y0093577D01*
X0054900Y0094175D02*
X0042475Y0094175D01*
X0042475Y0094774D02*
X0054900Y0094774D01*
X0054900Y0095372D02*
X0042475Y0095372D01*
X0042475Y0095971D02*
X0054981Y0095971D01*
X0055229Y0096569D02*
X0042475Y0096569D01*
X0042475Y0097168D02*
X0055477Y0097168D01*
X0056051Y0097766D02*
X0042475Y0097766D01*
X0042475Y0098365D02*
X0056732Y0098365D01*
X0043591Y0098963D02*
X0042475Y0098963D01*
X0042475Y0099562D02*
X0042993Y0099562D01*
X0042625Y0100160D02*
X0042475Y0100160D01*
X0042475Y0100759D02*
X0042625Y0100759D01*
X0042625Y0101357D02*
X0042475Y0101357D01*
X0042475Y0101956D02*
X0042625Y0101956D01*
X0042625Y0102554D02*
X0042475Y0102554D01*
X0042475Y0103153D02*
X0042625Y0103153D01*
X0042625Y0103751D02*
X0042475Y0103751D01*
X0042475Y0104350D02*
X0042625Y0104350D01*
X0042625Y0104948D02*
X0042475Y0104948D01*
X0042475Y0105547D02*
X0042625Y0105547D01*
X0042625Y0106145D02*
X0042475Y0106145D01*
X0042475Y0106744D02*
X0042625Y0106744D01*
X0042625Y0107342D02*
X0042475Y0107342D01*
X0042475Y0107941D02*
X0042625Y0107941D01*
X0042625Y0108539D02*
X0042475Y0108539D01*
X0042475Y0109138D02*
X0042625Y0109138D01*
X0042625Y0109737D02*
X0042475Y0109737D01*
X0042475Y0110335D02*
X0042625Y0110335D01*
X0042625Y0110934D02*
X0042475Y0110934D01*
X0042475Y0111532D02*
X0042625Y0111532D01*
X0042625Y0112131D02*
X0042475Y0112131D01*
X0042475Y0112729D02*
X0042625Y0112729D01*
X0042625Y0113328D02*
X0042475Y0113328D01*
X0042475Y0113926D02*
X0042625Y0113926D01*
X0042625Y0114525D02*
X0042475Y0114525D01*
X0042475Y0115123D02*
X0042625Y0115123D01*
X0042625Y0115722D02*
X0042475Y0115722D01*
X0042475Y0116320D02*
X0043150Y0116320D01*
X0043748Y0116919D02*
X0042475Y0116919D01*
X0042475Y0117517D02*
X0044347Y0117517D01*
X0044945Y0118116D02*
X0042475Y0118116D01*
X0042475Y0118714D02*
X0045544Y0118714D01*
X0046142Y0119313D02*
X0042475Y0119313D01*
X0042475Y0119911D02*
X0046741Y0119911D01*
X0047339Y0120510D02*
X0042475Y0120510D01*
X0042475Y0121108D02*
X0047938Y0121108D01*
X0048536Y0121707D02*
X0042475Y0121707D01*
X0042475Y0122305D02*
X0049135Y0122305D01*
X0049733Y0122904D02*
X0042475Y0122904D01*
X0042475Y0123502D02*
X0050332Y0123502D01*
X0050916Y0124101D02*
X0050930Y0124101D01*
X0051515Y0124699D02*
X0051529Y0124699D01*
X0051999Y0125298D02*
X0084900Y0125298D01*
X0084900Y0125896D02*
X0052247Y0125896D01*
X0052478Y0126495D02*
X0084900Y0126495D01*
X0084900Y0127093D02*
X0052478Y0127093D01*
X0052478Y0127692D02*
X0084900Y0127692D01*
X0085275Y0128290D02*
X0052323Y0128290D01*
X0046085Y0124699D02*
X0042475Y0124699D01*
X0042475Y0124101D02*
X0046684Y0124101D01*
X0045601Y0125298D02*
X0042475Y0125298D01*
X0042475Y0125896D02*
X0044783Y0125896D01*
X0044185Y0126495D02*
X0042475Y0126495D01*
X0042475Y0127093D02*
X0043875Y0127093D01*
X0043875Y0127692D02*
X0042475Y0127692D01*
X0042475Y0128290D02*
X0043875Y0128290D01*
X0043875Y0128889D02*
X0042475Y0128889D01*
X0042475Y0129487D02*
X0043875Y0129487D01*
X0043875Y0130086D02*
X0042475Y0130086D01*
X0042475Y0130684D02*
X0043875Y0130684D01*
X0043875Y0131283D02*
X0042475Y0131283D01*
X0042475Y0131881D02*
X0043875Y0131881D01*
X0043875Y0132480D02*
X0042475Y0132480D01*
X0042475Y0133078D02*
X0043875Y0133078D01*
X0043875Y0133677D02*
X0042475Y0133677D01*
X0042475Y0134275D02*
X0043875Y0134275D01*
X0043875Y0134874D02*
X0042475Y0134874D01*
X0042475Y0135472D02*
X0044177Y0135472D01*
X0044775Y0136071D02*
X0042475Y0136071D01*
X0042475Y0136670D02*
X0045374Y0136670D01*
X0045972Y0137268D02*
X0042475Y0137268D01*
X0042475Y0137867D02*
X0046571Y0137867D01*
X0053296Y0121375D02*
X0080860Y0121375D01*
X0079900Y0120415D01*
X0079900Y0117185D01*
X0082185Y0114900D01*
X0085154Y0114900D01*
X0086329Y0113725D01*
X0052478Y0113725D01*
X0052478Y0114532D01*
X0051918Y0115883D01*
X0050883Y0116918D01*
X0049532Y0117478D01*
X0049399Y0117478D01*
X0053296Y0121375D01*
X0053029Y0121108D02*
X0080593Y0121108D01*
X0079994Y0120510D02*
X0052430Y0120510D01*
X0051832Y0119911D02*
X0079900Y0119911D01*
X0079900Y0119313D02*
X0051233Y0119313D01*
X0050635Y0118714D02*
X0079900Y0118714D01*
X0079900Y0118116D02*
X0050036Y0118116D01*
X0049438Y0117517D02*
X0079900Y0117517D01*
X0080166Y0116919D02*
X0050882Y0116919D01*
X0051481Y0116320D02*
X0080764Y0116320D01*
X0081363Y0115722D02*
X0051985Y0115722D01*
X0052233Y0115123D02*
X0081961Y0115123D01*
X0085530Y0114525D02*
X0052478Y0114525D01*
X0052478Y0113926D02*
X0086128Y0113926D01*
X0061661Y0086993D02*
X0061508Y0086993D01*
X0060770Y0086395D02*
X0062260Y0086395D01*
X0075306Y0068439D02*
X0076912Y0068439D01*
X0076125Y0067841D02*
X0075905Y0067841D01*
X0072609Y0066045D02*
X0072588Y0066045D01*
X0072700Y0065447D02*
X0073208Y0065447D01*
X0072700Y0064848D02*
X0073806Y0064848D01*
X0074405Y0064250D02*
X0072700Y0064250D01*
X0072700Y0063651D02*
X0074900Y0063651D01*
X0074900Y0063053D02*
X0072700Y0063053D01*
X0072700Y0062454D02*
X0074900Y0062454D01*
X0074900Y0061856D02*
X0072700Y0061856D01*
X0072700Y0061257D02*
X0074900Y0061257D01*
X0074900Y0060659D02*
X0072700Y0060659D01*
X0072700Y0060060D02*
X0074900Y0060060D01*
X0074900Y0059462D02*
X0072700Y0059462D01*
X0072633Y0058863D02*
X0074967Y0058863D01*
X0075215Y0058265D02*
X0072385Y0058265D01*
X0072137Y0057666D02*
X0075463Y0057666D01*
X0076017Y0057068D02*
X0071583Y0057068D01*
X0070949Y0056469D02*
X0076651Y0056469D01*
X0071466Y0052279D02*
X0258201Y0052279D01*
X0258201Y0051681D02*
X0072065Y0051681D01*
X0072663Y0051082D02*
X0258201Y0051082D01*
X0258201Y0050484D02*
X0073262Y0050484D01*
X0073860Y0049885D02*
X0258201Y0049885D01*
X0258201Y0049287D02*
X0074459Y0049287D01*
X0075057Y0048688D02*
X0258201Y0048688D01*
X0258201Y0048090D02*
X0075656Y0048090D01*
X0076254Y0047491D02*
X0258201Y0047491D01*
X0258201Y0052878D02*
X0070868Y0052878D01*
X0070269Y0053476D02*
X0258201Y0053476D01*
X0258201Y0054075D02*
X0069671Y0054075D01*
X0069072Y0054673D02*
X0258201Y0054673D01*
X0258201Y0055272D02*
X0068474Y0055272D01*
X0067875Y0055870D02*
X0258201Y0055870D01*
X0258201Y0018164D02*
X0256257Y0018164D01*
X0257021Y0017566D02*
X0258201Y0017566D01*
X0258201Y0016967D02*
X0257619Y0016967D01*
X0135662Y0031332D02*
X0121938Y0031332D01*
X0122537Y0031930D02*
X0135063Y0031930D01*
X0134465Y0032529D02*
X0123135Y0032529D01*
X0123734Y0033127D02*
X0133866Y0033127D01*
X0133268Y0033726D02*
X0124332Y0033726D01*
X0124931Y0034324D02*
X0132669Y0034324D01*
X0132071Y0034923D02*
X0125529Y0034923D01*
X0126128Y0035521D02*
X0131472Y0035521D01*
X0131300Y0036120D02*
X0126300Y0036120D01*
X0126300Y0036718D02*
X0131300Y0036718D01*
X0131300Y0037317D02*
X0126300Y0037317D01*
X0126300Y0037915D02*
X0131300Y0037915D01*
X0131300Y0038514D02*
X0126300Y0038514D01*
X0126300Y0039112D02*
X0131300Y0039112D01*
X0131300Y0039711D02*
X0126300Y0039711D01*
X0126300Y0040309D02*
X0131300Y0040309D01*
X0131300Y0040908D02*
X0126300Y0040908D01*
X0126300Y0041506D02*
X0131300Y0041506D01*
X0131498Y0042105D02*
X0126102Y0042105D01*
X0125503Y0042703D02*
X0132097Y0042703D01*
X0132695Y0043302D02*
X0124905Y0043302D01*
X0124306Y0043900D02*
X0133294Y0043900D01*
X0133892Y0044499D02*
X0123708Y0044499D01*
X0123109Y0045097D02*
X0134491Y0045097D01*
X0135089Y0045696D02*
X0122511Y0045696D01*
X0121912Y0046294D02*
X0135688Y0046294D01*
X0115662Y0031332D02*
X0008100Y0031332D01*
X0008100Y0031930D02*
X0115063Y0031930D01*
X0114465Y0032529D02*
X0008100Y0032529D01*
X0008100Y0033127D02*
X0113866Y0033127D01*
X0113268Y0033726D02*
X0008100Y0033726D01*
X0008100Y0034324D02*
X0112669Y0034324D01*
X0112071Y0034923D02*
X0008100Y0034923D01*
X0008100Y0035521D02*
X0111472Y0035521D01*
X0111300Y0036120D02*
X0008100Y0036120D01*
X0008100Y0036718D02*
X0111300Y0036718D01*
X0081338Y0037317D02*
X0008100Y0037317D01*
X0008100Y0037915D02*
X0080739Y0037915D01*
X0146740Y0116225D02*
X0147700Y0117185D01*
X0147700Y0120154D01*
X0148921Y0121375D01*
X0185860Y0121375D01*
X0184900Y0120415D01*
X0184900Y0117446D01*
X0184595Y0117141D01*
X0184289Y0117880D01*
X0183505Y0118664D01*
X0182480Y0119089D01*
X0181370Y0119089D01*
X0180345Y0118664D01*
X0179561Y0117880D01*
X0179136Y0116855D01*
X0179136Y0116225D01*
X0146740Y0116225D01*
X0146836Y0116320D02*
X0179136Y0116320D01*
X0179162Y0116919D02*
X0147434Y0116919D01*
X0147700Y0117517D02*
X0179410Y0117517D01*
X0179796Y0118116D02*
X0147700Y0118116D01*
X0147700Y0118714D02*
X0180465Y0118714D01*
X0183385Y0118714D02*
X0184900Y0118714D01*
X0184900Y0118116D02*
X0184054Y0118116D01*
X0184440Y0117517D02*
X0184900Y0117517D01*
X0184900Y0119313D02*
X0147700Y0119313D01*
X0147700Y0119911D02*
X0184900Y0119911D01*
X0184994Y0120510D02*
X0148055Y0120510D01*
X0148654Y0121108D02*
X0185593Y0121108D01*
X0194090Y0122305D02*
X0196790Y0122305D01*
X0196191Y0121707D02*
X0194689Y0121707D01*
X0195287Y0121108D02*
X0195593Y0121108D01*
X0248387Y0157019D02*
X0016506Y0157019D01*
X0016954Y0157617D02*
X0074885Y0157617D01*
X0074720Y0157686D02*
X0075745Y0157261D01*
X0076855Y0157261D01*
X0077880Y0157686D01*
X0078444Y0158250D01*
X0188531Y0158250D01*
X0189095Y0157686D01*
X0190120Y0157261D01*
X0191230Y0157261D01*
X0192255Y0157686D01*
X0193039Y0158470D01*
X0193464Y0159495D01*
X0193464Y0160605D01*
X0193039Y0161630D01*
X0192255Y0162414D01*
X0191230Y0162839D01*
X0190120Y0162839D01*
X0189095Y0162414D01*
X0188531Y0161850D01*
X0078444Y0161850D01*
X0077880Y0162414D01*
X0076855Y0162839D01*
X0075745Y0162839D01*
X0074720Y0162414D01*
X0073936Y0161630D01*
X0073511Y0160605D01*
X0073511Y0159495D01*
X0073936Y0158470D01*
X0074720Y0157686D01*
X0074190Y0158216D02*
X0017202Y0158216D01*
X0017449Y0158814D02*
X0073793Y0158814D01*
X0073545Y0159413D02*
X0017697Y0159413D01*
X0017772Y0160011D02*
X0073511Y0160011D01*
X0073513Y0160610D02*
X0017772Y0160610D01*
X0017772Y0161208D02*
X0073761Y0161208D01*
X0074113Y0161807D02*
X0017772Y0161807D01*
X0017607Y0162405D02*
X0074711Y0162405D01*
X0077889Y0162405D02*
X0189086Y0162405D01*
X0192264Y0162405D02*
X0247900Y0162405D01*
X0247652Y0161807D02*
X0192862Y0161807D01*
X0193214Y0161208D02*
X0247528Y0161208D01*
X0247528Y0160610D02*
X0193462Y0160610D01*
X0193464Y0160011D02*
X0247528Y0160011D01*
X0247528Y0159413D02*
X0193430Y0159413D01*
X0193182Y0158814D02*
X0247643Y0158814D01*
X0247891Y0158216D02*
X0192785Y0158216D01*
X0192090Y0157617D02*
X0248139Y0157617D01*
X0248893Y0156420D02*
X0015907Y0156420D01*
X0015308Y0155822D02*
X0249491Y0155822D01*
X0250090Y0155223D02*
X0014103Y0155223D01*
X0009297Y0155223D02*
X0008100Y0155223D01*
X0008100Y0154625D02*
X0251435Y0154625D01*
X0255765Y0154625D02*
X0258201Y0154625D01*
X0258201Y0155223D02*
X0257110Y0155223D01*
X0257708Y0155822D02*
X0258201Y0155822D01*
X0258201Y0154026D02*
X0008100Y0154026D01*
X0008100Y0153428D02*
X0258201Y0153428D01*
X0258201Y0152829D02*
X0008100Y0152829D01*
X0008100Y0152231D02*
X0258201Y0152231D01*
X0258201Y0151632D02*
X0008100Y0151632D01*
X0008100Y0151034D02*
X0258201Y0151034D01*
X0248148Y0163004D02*
X0017359Y0163004D01*
X0017111Y0163603D02*
X0248396Y0163603D01*
X0248914Y0164201D02*
X0016863Y0164201D01*
X0077715Y0157617D02*
X0189260Y0157617D01*
X0188565Y0158216D02*
X0078410Y0158216D01*
D19*
X0066300Y0118800D03*
X0166300Y0061300D03*
X0215600Y0109200D03*
X0168800Y0118800D03*
X0058800Y0046300D03*
M02*
