G75*
%MOIN*%
%OFA0B0*%
%FSLAX25Y25*%
%IPPOS*%
%LPD*%
%AMOC8*
5,1,8,0,0,1.08239X$1,22.5*
%
%ADD10C,0.04343*%
%ADD11OC8,0.06400*%
%ADD12OC8,0.13200*%
%ADD13C,0.06000*%
%ADD14R,0.05918X0.07099*%
%ADD15C,0.05556*%
%ADD16OC8,0.06000*%
%ADD17C,0.03778*%
%ADD18OC8,0.04762*%
D10*
X0011700Y0011900D03*
X0011700Y0160800D03*
X0253600Y0160300D03*
X0253100Y0012900D03*
D11*
X0148800Y0073800D03*
X0148800Y0083800D03*
X0118800Y0083800D03*
X0118800Y0073800D03*
D12*
X0118800Y0038800D03*
X0138800Y0038800D03*
D13*
X0088800Y0059800D02*
X0088800Y0065000D01*
X0078800Y0065000D02*
X0078800Y0059800D01*
X0068800Y0059800D02*
X0068800Y0065000D01*
X0058800Y0065000D02*
X0058800Y0059800D01*
X0058800Y0089800D02*
X0058800Y0095000D01*
X0068800Y0095000D02*
X0068800Y0089800D01*
X0078800Y0089800D02*
X0078800Y0095000D01*
X0088800Y0095000D02*
X0088800Y0089800D01*
D14*
X0082540Y0153800D03*
X0075060Y0153800D03*
X0047540Y0153800D03*
X0040060Y0153800D03*
X0115060Y0153800D03*
X0122540Y0153800D03*
X0145060Y0153800D03*
X0152540Y0153800D03*
X0185060Y0153800D03*
X0192540Y0153800D03*
X0215060Y0153800D03*
X0222540Y0153800D03*
D15*
X0048800Y0127186D03*
X0048800Y0113800D03*
D16*
X0083800Y0118800D03*
X0093800Y0118800D03*
X0088800Y0126300D03*
X0133800Y0118800D03*
X0143800Y0118800D03*
X0138800Y0126300D03*
X0188800Y0118800D03*
X0198800Y0118800D03*
X0193800Y0126300D03*
D17*
X0205675Y0133175D03*
X0181925Y0116300D03*
X0138800Y0103800D03*
X0190675Y0160050D03*
X0076300Y0160050D03*
X0040675Y0147550D03*
X0048800Y0133175D03*
D18*
X0066300Y0118800D03*
X0166300Y0061300D03*
X0215600Y0109200D03*
X0168800Y0118800D03*
X0058800Y0046300D03*
M02*
