%
M48
M72
T01C0.01378
T02C0.02362
T03C0.02756
T04C0.03150
T05C0.03200
T06C0.03543
T07C0.04400
%
T01
X138800Y103800
X181925Y116300
X205675Y133175
X190675Y160050
X76300Y160050
X40675Y147550
X48800Y133175
T02
X66300Y118800
X166300Y61300
X215600Y109200
X168800Y118800
X58800Y46300
T03
X48800Y113800
X48800Y127186
T04
X186729Y85871
X200871Y85871
X200871Y71729
T05
X148800Y73800
X148800Y83800
X118800Y83800
X118800Y73800
X88800Y62400
X78800Y62400
X68800Y62400
X58800Y62400
X58800Y92400
X68800Y92400
X78800Y92400
X88800Y92400
X83800Y118800
X93800Y118800
X88800Y126300
X133800Y118800
X143800Y118800
X138800Y126300
X188800Y118800
X198800Y118800
X193800Y126300
T06
X11700Y11900
X11700Y160800
X253600Y160300
X253100Y12900
T07
X138800Y38800
X118800Y38800
M30
